<svg width="37" height="38" viewBox="0 0 37 38" fill="none" xmlns="http://www.w3.org/2000/svg">
<g id="Brands / web">
<g id="Group 1000001815">
<path id="Subtract" fill-rule="evenodd" clip-rule="evenodd" d="M18.4853 34.4101C26.9988 34.4101 33.9003 27.5085 33.9003 18.9951C33.9003 10.4816 26.9988 3.58008 18.4853 3.58008C9.97184 3.58008 3.07031 10.4816 3.07031 18.9951C3.07031 27.5085 9.97184 34.4101 18.4853 34.4101ZM18.9117 11.0104C18.7915 11.0375 18.6104 11.1268 18.3738 11.3841C18.0684 11.7162 17.7474 12.2521 17.4571 12.9985C17.2323 13.5767 17.0375 14.251 16.8835 15H21.1165C20.9625 14.251 20.7677 13.5767 20.5429 12.9985C20.2526 12.2521 19.9316 11.7162 19.6262 11.3841C19.4221 11.1621 19.2592 11.0651 19.1412 11.0253C19.065 11.0193 18.9885 11.0143 18.9117 11.0104ZM22.2722 11.9434C22.3185 12.0517 22.3634 12.1618 22.4069 12.2736C22.7172 13.0715 22.9698 13.9928 23.1537 15H25.4297C24.6837 13.7103 23.5879 12.6482 22.2722 11.9434ZM16.5908 17C16.5317 17.638 16.5 18.3076 16.5 19C16.5 19.6924 16.5317 20.3619 16.5908 21H21.4092C21.4683 20.3619 21.5 19.6924 21.5 19C21.5 18.3076 21.4683 17.638 21.4092 17H16.5908ZM23.417 21C23.4716 20.3524 23.5 19.6832 23.5 19C23.5 18.3168 23.4716 17.6476 23.417 17H26.248C26.4125 17.6392 26.5 18.3094 26.5 19C26.5 19.6906 26.4125 20.3608 26.248 21H23.417ZM16.8835 23C17.0375 23.749 17.2323 24.4233 17.4571 25.0015C17.7474 25.7479 18.0684 26.2838 18.3738 26.6159C18.6104 26.8732 18.7916 26.9625 18.9117 26.9896C18.9885 26.9857 19.065 26.9807 19.1412 26.9747C19.2592 26.9349 19.4221 26.8379 19.6262 26.6159C19.9316 26.2838 20.2526 25.7479 20.5429 25.0015C20.7677 24.4233 20.9625 23.749 21.1165 23H16.8835ZM22.2722 26.0566C22.3185 25.9483 22.3634 25.8382 22.4069 25.7264C22.7172 24.9285 22.9698 24.0072 23.1537 23H25.4297C24.6837 24.2897 23.5879 25.3518 22.2722 26.0566ZM18.836 28.9945C18.89 28.9981 18.9447 29 19 29C19.1632 29 19.3209 28.9837 19.473 28.9533C24.5393 28.4641 28.5 24.1946 28.5 19C28.5 13.8054 24.5393 9.53594 19.473 9.04674C19.3209 9.01632 19.1632 9 19 9C18.9447 9 18.89 9.00187 18.836 9.00554C18.7244 9.00186 18.6124 9 18.5 9C14.2002 9 10.5342 11.7138 9.1214 15.522C9.07139 15.6138 9.03534 15.7142 9.01607 15.8205C8.68135 16.8193 8.5 17.8885 8.5 19C8.5 20.1115 8.68135 21.1807 9.01607 22.1795C9.03534 22.2858 9.07139 22.3862 9.1214 22.478C10.5342 26.2862 14.2002 29 18.5 29C18.6124 29 18.7244 28.9981 18.836 28.9945ZM15.9781 26.5944C15.839 26.3196 15.7108 26.0289 15.5931 25.7264C15.2828 24.9285 15.0302 24.0072 14.8463 23H11.5703C12.5419 24.6796 14.1066 25.9733 15.9781 26.5944ZM14.583 21C14.5284 20.3524 14.5 19.6832 14.5 19C14.5 18.3168 14.5284 17.6476 14.583 17H10.752C10.5875 17.6392 10.5 18.3094 10.5 19C10.5 19.6906 10.5875 20.3608 10.752 21H14.583ZM14.8463 15C15.0302 13.9928 15.2828 13.0715 15.5931 12.2736C15.7108 11.9711 15.839 11.6804 15.9781 11.4056C14.1066 12.0267 12.5419 13.3203 11.5703 15H14.8463Z" fill="#2C1551"/>
</g>
</g>
</svg>
