<svg width="37" height="38" viewBox="0 0 37 38" fill="none" xmlns="http://www.w3.org/2000/svg">
<path d="M18.4909 3.58337C15.4418 3.58337 12.4611 4.48755 9.92585 6.18155C7.39059 7.87556 5.4146 10.2833 4.24775 13.1003C3.0809 15.9174 2.7756 19.0171 3.37045 22.0077C3.96531 24.9982 5.4336 27.7452 7.58966 29.9013C9.74572 32.0573 12.4927 33.5256 15.4833 34.1205C18.4738 34.7153 21.5736 34.41 24.3906 33.2432C27.2076 32.0763 29.6154 30.1003 31.3094 27.5651C33.0034 25.0298 33.9076 22.0492 33.9076 19C33.9077 16.9754 33.5091 14.9707 32.7344 13.1001C31.9597 11.2296 30.8241 9.53004 29.3925 8.09844C27.9609 6.66683 26.2613 5.53126 24.3908 4.75656C22.5203 3.98186 20.5155 3.58321 18.4909 3.58337V3.58337ZM23.3926 26.9434C23.3349 27.0873 23.2471 27.2172 23.1351 27.3244C23.0231 27.4316 22.8895 27.5136 22.7432 27.5649C22.5969 27.6162 22.4414 27.6356 22.287 27.6219C22.1325 27.6082 21.9828 27.5616 21.8479 27.4853L17.6628 24.2334L14.9767 26.7115C14.9144 26.7575 14.8415 26.7871 14.7647 26.7976C14.6879 26.8081 14.6097 26.7991 14.5373 26.7715L15.0522 22.1643L15.0687 22.1774L15.0792 22.0864C15.0792 22.0864 22.6103 15.2298 22.9171 14.9377C23.2277 14.6463 23.1252 14.5831 23.1252 14.5831C23.1429 14.2277 22.5679 14.5831 22.5679 14.5831L12.5894 21.0027L8.43385 19.5874C8.43385 19.5874 7.7956 19.3585 7.73547 18.8551C7.67226 18.3556 8.45464 18.0843 8.45464 18.0843L24.9767 11.5206C24.9767 11.5206 26.3349 10.9155 26.3349 11.9176L23.3926 26.9434Z" fill="#2C1551"/>
</svg>
