<svg width="37" height="38" viewBox="0 0 37 38" fill="none" xmlns="http://www.w3.org/2000/svg">
<g id="Brands / vk">
<path id="Vector" d="M23.2371 3.58337H13.7783C5.13853 3.58337 3.08301 5.63889 3.08301 14.2626V23.7214C3.08301 32.3611 5.12254 34.4167 13.7622 34.4167H23.221C31.8608 34.4167 33.9163 32.3772 33.9163 23.7374V14.2787C33.9163 5.63889 31.8768 3.58337 23.2371 3.58337ZM27.9745 25.5842H25.7262C24.8751 25.5842 24.6182 24.8936 23.0926 23.3681C21.7596 22.0834 21.1976 21.9227 20.8604 21.9227C20.3947 21.9227 20.2661 22.0512 20.2661 22.6936V24.717C20.2661 25.2631 20.0895 25.5842 18.6603 25.5842C17.2734 25.491 15.9285 25.0697 14.7363 24.3549C13.5441 23.6402 12.5388 22.6525 11.8031 21.4731C10.0565 19.2992 8.8413 16.7478 8.25405 14.0217C8.25405 13.6845 8.38249 13.3793 9.02488 13.3793H11.2731C11.8512 13.3793 12.06 13.6363 12.2848 14.2305C13.3768 17.4423 15.2397 20.2366 15.9945 20.2366C16.2835 20.2366 16.412 20.1081 16.412 19.3855V16.0772C16.3156 14.5677 15.5127 14.4392 15.5127 13.8933C15.5233 13.7492 15.5896 13.615 15.6975 13.519C15.8054 13.4231 15.9465 13.373 16.0908 13.3793H19.6238C20.1056 13.3793 20.2661 13.6202 20.2661 14.1983V18.6628C20.2661 19.1446 20.4749 19.3051 20.6195 19.3051C20.9085 19.3051 21.1333 19.1446 21.6633 18.6146C22.8021 17.2259 23.7326 15.6787 24.4255 14.0217C24.4962 13.8223 24.6302 13.6516 24.8071 13.5356C24.984 13.4196 25.1941 13.3647 25.4051 13.3793H27.6533C28.3278 13.3793 28.4723 13.7166 28.3278 14.1983C27.5097 16.0303 26.4976 17.7693 25.3087 19.3855C25.0679 19.7548 24.9715 19.9475 25.3087 20.3811C25.5335 20.7183 26.3205 21.3767 26.8504 22.003C27.6212 22.7719 28.2613 23.6615 28.7453 24.6368C28.938 25.2631 28.6169 25.5842 27.9745 25.5842Z" fill="#2C1551"/>
</g>
</svg>
