<?xml version="1.0" encoding="utf-8"?><svg xmlns="http://www.w3.org/2000/svg" xmlns:xlink="http://www.w3.org/1999/xlink"><symbol viewBox="0 0 22 24" id="basket" xmlns="http://www.w3.org/2000/svg"><g clip-path="url(#aa)"><path d="M10.363 18.443a2.046 2.046 0 0 0-2.045 2.042 2.046 2.046 0 0 0 4.09 0 2.046 2.046 0 0 0-2.045-2.042Zm6.134 0a2.046 2.046 0 0 0-2.045 2.042 2.046 2.046 0 0 0 4.089 0 2.046 2.046 0 0 0-2.044-2.042Zm3.978-8.199L7.413 6.891a.614.614 0 0 0-.75.73L8.67 16.4h-.786L5.482 5.895a.613.613 0 0 0-.474-.464l-4.27-.882A.614.614 0 0 0 .489 5.75l3.885.802L6.797 17.15a.613.613 0 0 0 .598.477h12.07a.615.615 0 0 0 .607-.53l.858-6.175a.613.613 0 0 0-.455-.678Zm-8.14 3.91a.613.613 0 0 1-1.227 0v-2.696a.613.613 0 0 1 1.227 0v2.696Zm2.625 0a.613.613 0 0 1-1.227 0v-1.88a.613.613 0 0 1 1.227 0v1.88Zm2.625 0a.613.613 0 0 1-1.227 0v-1.226a.613.613 0 0 1 1.227 0v1.226Z"/></g><path fill-rule="evenodd" clip-rule="evenodd" d="M16.268 4.568a2.996 2.996 0 0 0-1.693-.523c-.627 0-1.21.193-1.693.523-.28-.843-.492-1.752-.492-2.383C12.39.98 13.37 0 14.575 0s2.185.98 2.185 2.185c0 .631-.212 1.54-.492 2.383Zm-4.722 2.274.024.006v-.011l-.024.005Zm4.972 1.217c-1.333-.33-2.766-.681-4.129-1.013a2.185 2.185 0 1 1 4.129 1.013Zm4.436 1.103c-.866-.217-2.155-.538-3.618-.9a2.995 2.995 0 0 0 .243-1.425c.87.18 1.762.45 2.308.765.596.344.969.928 1.067 1.56ZM9.869 6.439c-.36-.086-.706-.167-1.03-.243a2.19 2.19 0 0 1-.376-2.667 2.188 2.188 0 0 1 3.147-.7c.098.738.338 1.599.61 2.353a3.01 3.01 0 0 0-.449.774c-.628.113-1.305.278-1.902.483Zm10.124.075a3.43 3.43 0 0 1-.217.114c-.696-.295-1.587-.526-2.397-.672a3.01 3.01 0 0 0-.449-.774c.262-.727.494-1.553.599-2.273.095-.067.189-.128.278-.18a2.188 2.188 0 0 1 2.986.8 2.188 2.188 0 0 1-.8 2.985Z"/><defs><clipPath id="aa"><path transform="translate(0 3.064)" d="M0 0h20.936v20.936H0z"/></clipPath></defs></symbol><symbol viewBox="0 0 42 42" id="calendar" xmlns="http://www.w3.org/2000/svg"><path d="M34.125 4.594h-3.281v-.657a1.969 1.969 0 0 0-3.938 0v.657H15.094v-.657a1.969 1.969 0 0 0-3.938 0v.657H7.875a3.281 3.281 0 0 0-3.281 3.281v26.25a3.281 3.281 0 0 0 3.281 3.281h26.25a3.282 3.282 0 0 0 3.281-3.281V7.875a3.281 3.281 0 0 0-3.281-3.281ZM11.156 8.53a1.969 1.969 0 0 0 3.938 0h11.812a1.969 1.969 0 0 0 3.938 0h2.625v3.938H8.53V8.53h2.625ZM8.531 33.47V16.406H33.47V33.47H8.53Z"/></symbol><symbol viewBox="0 0 42 42" id="case" xmlns="http://www.w3.org/2000/svg"><path d="M16.406 16.406a1.969 1.969 0 0 1 1.969-1.968h5.25a1.969 1.969 0 1 1 0 3.937h-5.25a1.969 1.969 0 0 1-1.969-1.969Zm22.313-5.25v21a3.281 3.281 0 0 1-3.282 3.282H6.564a3.281 3.281 0 0 1-3.282-3.282v-21a3.281 3.281 0 0 1 3.281-3.281h5.907V6.562a4.594 4.594 0 0 1 4.594-4.593h7.875a4.594 4.594 0 0 1 4.593 4.593v1.313h5.907a3.281 3.281 0 0 1 3.28 3.281ZM16.406 7.875h9.188V6.562a.656.656 0 0 0-.657-.656h-7.875a.656.656 0 0 0-.656.657v1.312ZM7.22 11.813v5.78A29.541 29.541 0 0 0 21 21a29.531 29.531 0 0 0 13.781-3.41v-5.777H7.22ZM34.78 31.5v-9.526A33.514 33.514 0 0 1 21 24.938a33.494 33.494 0 0 1-13.781-2.963V31.5H34.78Z"/></symbol><symbol viewBox="0 0 344.96 344.96" id="check" xmlns="http://www.w3.org/2000/svg"><g data-name="Слой 2"><path class="dcls-1" d="m321.85 86.24-40-23.11-23.1-40H212.5L172.48 0l-40 23.11H86.24l-23.11 40-40 23.1v46.21L0 172.48l23.11 40v46.21l40 23.11 23.11 40h46.21l40 23.1 40-23.11h46.21l23.11-40 40-23.11V212.5l23.11-40-23.11-40V86.24ZM156.91 243.07a16.79 16.79 0 0 1-23.34 0l-50.45-50.44a16.19 16.19 0 0 1 0-22.89l13.35-13.35a16.19 16.19 0 0 1 22.89 0l25.87 25.87 80.34-80.35a16.19 16.19 0 0 1 22.89 0l13.35 13.35a16.19 16.19 0 0 1 0 22.89Z" data-name="Capa 1"/></g></symbol><symbol viewBox="0 0 24 24" id="fb" xmlns="http://www.w3.org/2000/svg"><path d="M13.397 20.997v-8.196h2.765l.411-3.209h-3.176V7.548c0-.926.258-1.56 1.587-1.56h1.684v-2.86A22.108 22.108 0 0 0 14.201 3c-2.444 0-4.122 1.492-4.122 4.231v2.355H7.332v3.21h2.753v8.201h3.312Z"/></symbol><symbol viewBox="0 0 24 24" id="instagram" xmlns="http://www.w3.org/2000/svg"><path d="M11.999 7.377a4.624 4.624 0 1 0 0 9.248 4.624 4.624 0 0 0 0-9.248Zm0 7.627a3.004 3.004 0 1 1 0-6.008 3.004 3.004 0 0 1 0 6.008Zm4.807-6.719a1.078 1.078 0 1 0 0-2.156 1.078 1.078 0 0 0 0 2.156Z"/><path d="M20.533 6.11A4.605 4.605 0 0 0 17.9 3.48a6.607 6.607 0 0 0-2.186-.42c-.963-.042-1.268-.054-3.71-.054s-2.755 0-3.71.054a6.554 6.554 0 0 0-2.184.42 4.6 4.6 0 0 0-2.633 2.63 6.585 6.585 0 0 0-.419 2.186c-.043.962-.056 1.267-.056 3.71 0 2.442 0 2.753.056 3.71.015.748.156 1.486.419 2.187a4.61 4.61 0 0 0 2.634 2.632 6.583 6.583 0 0 0 2.185.45c.963.042 1.268.055 3.71.055s2.755 0 3.71-.055a6.616 6.616 0 0 0 2.186-.42 4.613 4.613 0 0 0 2.633-2.632c.263-.7.404-1.438.419-2.186.043-.962.056-1.267.056-3.71s0-2.753-.056-3.71a6.583 6.583 0 0 0-.421-2.217Zm-1.218 9.533a5.046 5.046 0 0 1-.311 1.688 2.987 2.987 0 0 1-1.712 1.71c-.535.2-1.1.305-1.67.312-.95.044-1.218.055-3.654.055-2.438 0-2.687 0-3.655-.055a4.961 4.961 0 0 1-1.67-.311 2.984 2.984 0 0 1-1.718-1.711 5.08 5.08 0 0 1-.311-1.67c-.043-.95-.053-1.217-.053-3.653 0-2.437 0-2.686.053-3.655a5.038 5.038 0 0 1 .311-1.687c.305-.79.93-1.41 1.719-1.712a5.01 5.01 0 0 1 1.669-.311c.95-.043 1.218-.055 3.655-.055s2.687 0 3.654.055a4.96 4.96 0 0 1 1.67.31 2.99 2.99 0 0 1 1.712 1.713 5.06 5.06 0 0 1 .311 1.669c.043.95.054 1.218.054 3.655 0 2.436 0 2.698-.043 3.654h-.011v-.001Z"/></symbol><symbol viewBox="0 0 105 34" id="logo" xmlns="http://www.w3.org/2000/svg"><path d="M41.438 2.925v1.507h-1.693v7.906h-1.592V4.432h-1.694V2.925h4.98Zm3.18 0c1.73 0 2.667.89 2.667 2.423 0 .917-.504 1.645-1.214 1.896v.175c.81.264 1.314 1.029 1.314 2.183 0 1.733-.935 2.736-2.832 2.736h-2.3V2.925h2.365Zm-.785 3.827h.873c.708 0 1.062-.375 1.062-1.091v-.226c0-.69-.366-1.029-1.063-1.029h-.872v2.346Zm0 4.105h.836c.784 0 1.175-.427 1.175-1.18v-.39c0-.802-.366-1.343-1.175-1.343h-.836v2.913Zm9.123-8.096c2.705 0 4.906 2.06 4.906 4.87 0 2.687-2.073 4.87-4.906 4.87-2.704 0-4.905-2.06-4.905-4.87.003-2.686 2.076-4.87 4.905-4.87Zm0 8.234c1.986 0 3.311-1.519 3.311-3.364 0-1.97-1.453-3.363-3.31-3.363-1.986 0-3.312 1.519-3.312 3.363 0 1.971 1.453 3.364 3.311 3.364Zm7.509-8.07v.865l-.153 1.896h.204l2.515-2.761h.897v9.413h-1.592v-1.87l.202-4.959h-.202l-1.895 1.934v4.895h-1.566V2.925h1.59Zm.555-1.745h-.088c-.292 0-.43.1-.43.29 0 .188.152.289.43.289h.935c.277 0 .43-.1.43-.29 0-.189-.139-.289-.43-.289h-.088V0h.215c.821 0 1.492.452 1.492 1.206 0 .853-.682 1.306-2.084 1.306-1.403 0-2.085-.453-2.085-1.306 0-.754.669-1.206 1.492-1.206h.216v1.18h-.005Zm10.907 1.745v1.507H69.5v7.906h-1.592V2.925h4.019Zm5.012-.164c2.705 0 4.905 2.06 4.905 4.87 0 2.687-2.073 4.87-4.905 4.87-2.705 0-4.905-2.06-4.905-4.87 0-2.686 2.073-4.87 4.905-4.87Zm0 8.234c1.985 0 3.31-1.519 3.31-3.364 0-1.97-1.452-3.363-3.31-3.363-1.985 0-3.311 1.519-3.311 3.363-.002 1.971 1.45 3.364 3.31 3.364Zm8.137-8.07c1.734 0 2.833 1.154 2.833 3.352 0 2.02-1.088 3.225-2.833 3.225h-.62v2.836h-1.605V2.925h2.225Zm-.62 5.322h.607c.77 0 1.263-.639 1.263-1.733V6c0-1.054-.493-1.57-1.263-1.57h-.607v3.818Zm8.959-5.486c2.705 0 4.905 2.06 4.905 4.87 0 2.687-2.073 4.87-4.905 4.87-2.705 0-4.905-2.06-4.905-4.87.002-2.686 2.075-4.87 4.905-4.87Zm0 8.234c1.985 0 3.311-1.519 3.311-3.364 0-1.97-1.453-3.363-3.311-3.363-1.985 0-3.311 1.519-3.311 3.363 0 1.971 1.453 3.364 3.311 3.364Zm10.41-8.07v7.907H105v.59l-1.138 3.2h-.518v-2.284h-4.767v-.289l1.377-7.68V2.925h3.871Zm-2.668 1.507-.77 6.402h1.846V4.432h-1.076ZM41.438 19.19v1.507h-1.693v7.907h-1.592v-7.907h-1.694v-1.506h4.98Zm3.18 0c1.73 0 2.667.891 2.667 2.424 0 .916-.504 1.644-1.214 1.896v.175c.81.264 1.314 1.029 1.314 2.183 0 1.733-.935 2.736-2.832 2.736h-2.3V19.19h2.365Zm-.785 3.828h.873c.708 0 1.062-.376 1.062-1.092V21.7c0-.69-.366-1.028-1.063-1.028h-.872v2.346Zm0 4.105h.836c.784 0 1.175-.427 1.175-1.18v-.39c0-.802-.366-1.343-1.175-1.343h-.836v2.913Zm9.123-8.096c2.705 0 4.906 2.06 4.906 4.87 0 2.687-2.073 4.87-4.906 4.87-2.704 0-4.905-2.06-4.905-4.87.003-2.687 2.076-4.87 4.905-4.87Zm0 8.233c1.986 0 3.311-1.518 3.311-3.363 0-1.97-1.453-3.363-3.31-3.363-1.986 0-3.312 1.518-3.312 3.363 0 1.971 1.453 3.363 3.311 3.363Zm9.302-3.575h-1.796V27.1h2.971v1.506h-4.562v-9.415h4.31v1.507h-2.718v2.02l1.591-.416.204 1.383Zm-3.198-6.878h1.518v1.507H59.06v-1.507Zm2.53 0h1.515v1.507h-1.516v-1.507ZM71.7 19.19v7.907h1.175v.59l-1.138 3.2h-.518v-2.283h-4.767v-.29l1.377-7.68v-1.443h3.87Zm-2.668 1.507-.77 6.403h1.846v-6.403h-1.076Zm7.868 2.988h-1.796V27.1h2.971v1.506h-4.563v-9.415h4.31v1.506h-2.718v2.02l1.592-.415.204 1.383Zm7.776-4.495v9.414h-1.592v-7.907h-1.39l-.128 4.243c-.088 3.074-.759 3.74-1.77 3.74-.468 0-.872-.162-1.187-.526v-1.696h.38c0 .401.152.64.467.64.38 0 .569-.316.645-1.144l.505-5.27V19.19h4.07Zm5.903-.163c2.704 0 4.905 2.06 4.905 4.87 0 2.687-2.073 4.87-4.905 4.87-2.705 0-4.906-2.06-4.906-4.87 0-2.687 2.073-4.87 4.906-4.87Zm0 8.233c1.985 0 3.31-1.518 3.31-3.363 0-1.97-1.453-3.363-3.31-3.363-1.986 0-3.311 1.518-3.311 3.363-.003 1.971 1.453 3.363 3.31 3.363ZM53.25 14.976H36.494v1.413H53.25v-1.413ZM4.945 17.039c.08-.137.117-.044.105.086-.172.26-.308.397-.424.465.055-.198.184-.31.32-.551Zm.178.086c.043-.854.301-1.59.756-2.321-.172.055-.301.229-.46.501.27-.81.712-1.665 1.627-1.87.485-.105 1.137.21 1.794.8-.534.049-.99.154-1.29.352l-.019-.062c.154-.142.406-.248.67-.34l-.061-.013c-.394.093-.793.291-1.198.73l-.062.013c.332-.508.762-.73 1.217-.854l-.197.012c-.301.074-.62.279-.89.563-.486.49-.867 1.245-1.051 2.329-.019.049-.05-.044-.062.018.05-.458.148-.904.32-1.313a3.67 3.67 0 0 1 .86-1.256c.215-.21.4-.26.682-.446h-.05a1.35 1.35 0 0 0-.546.303c-.381.322-.719.799-.94 1.238-.203.39-.326.843-.387 1.45a1.623 1.623 0 0 1-.277.668c-.165.21-.3.074-.528.687l-.055.013c.03-.124.092-.304.153-.397.074-.105.148-.154.24-.272a1.7 1.7 0 0 0 .38-.873c.05-.322.118-.737.21-1.01.104-.315.196-.476.32-.643.362-.502.503-.824 1.338-1.27l-.073.013c-.608.241-.99.669-1.487 1.486-.38.625-.276 1.405-.577 1.987-.093.198-.338.49-.467.613l-.05.013c.074-.242.332-.428.455-.663.08-.155.11-.415.141-.607.166-1.114.486-1.634.959-2.185H6.45c-.989 1.09-.848 1.864-1.063 2.613-.153.489-.319.427-.681 1.114-.013-.105.03-.198.049-.248.03-.105.135-.198.3-.414.154-.217.29-.582.35-1.146.02-.26.105-.489.185-.687.08-.217.141-.365.24-.52.38-.613.725-1.01 1.198-1.27v-.043c-.486.21-.91.706-1.241 1.257a3.694 3.694 0 0 0-.393.904c-.068.273-.105.638-.197 1.003-.061.273-.209.44-.332.595-.092.11-.166.247-.227.29.05-.173.03-.352.32-.57a.594.594 0 0 0 .165-.272Zm4.675 1.109-.043.136-.043-.019.019-.117h.067Zm-.104-3.845-.03.093c-.898.55-1.272 1.61-1.279 3.058-.012.322-.043.657 0 1.01l.031-.075c.03-.854.03-1.579.135-2.08.117-.551.289-.886.467-1.12.062-.081.117-.187.178-.248.08-.087.172-.106.246-.18l-.012.074c-.344.34-.633.78-.762 1.35-.147.656-.154 1.412-.104 2.204a.842.842 0 0 1-.074.291l.043-.018a.994.994 0 0 0 .092-.446c-.074-.954 0-1.926.344-2.6.24-.471.38-.645 1.044-1.022l-.018.074c-.56.384-1.081.83-1.186 2.353l.031-.031c.104-1.152.516-2.006 1.278-2.316.27-.111.59-.092.94-.092l-.062.049c-.534-.05-1.001.136-1.4.563l.061.019c.38-.396.823-.613 1.382-.49l-.043.088c-.393-.062-.725.08-1.032.322v.043c.35-.242.67-.353.983-.291.105.012.135.093.105.216l-.062.57c-.012.551-.043 1.09-.172 1.579l-.055.043.055-.953-.215 1.182c-.018.137-.117.112-.092-.012.05-.248.135-.594.184-.954a.131.131 0 0 0-.104.112c-.062.508-.141.922-.258 1.071.073-.322.117-.644.123-.966l-.062.05-.153.904c.116.062-.031.155-.074.043l.05-.502-.044-.012-.215.799.074-.551-.203.55h-.074l.092-.47-.307.855c-.092.018-.104-.013-.03-.155l.196-.582-.061.012c-.123.427-.215.725-.369.824l-.061.006c.215-.384.245-.57.258-.762-.11.366-.228.626-.43.842-.031-.03.012-.123.135-.352l.117-.304c-.05-.062-.086-.043-.117.05-.074.26-.148.44-.277.6l.136-.508-.019-.061c-.092.303-.215.563-.393.718l.08.043c.276-.186.663-.124 1.05-.303.086-.044.166-.062.215-.019l-.073.198-.068-.111c-.043.155-.104.303-.184.365l-.031-.229c-.166.365-.276.563-.289.384l.031-.217a.836.836 0 0 0-.24.446c-.061-.012-.073-.136-.049-.31l-.104.384c-.092.019-.11-.08-.062-.31-.086.211-.153.354-.184.372-.043-.062-.049-.167-.018-.303l-.105.198c0 .142-.043.198-.104.186.03-.217.03-.304-.012-.248l-.123.334c-.074.044-.092-.043-.08-.229-.117.062-.08.291-.166.384-.062-.043-.074-.142-.062-.26-.049.18-.104.279-.178.291l-.018-.34a1.22 1.22 0 0 1-.135.383l-.092-.247-.043.241c-.074.044-.136-.018-.179-.173-.012.322-.043.594-.245.73.018.081-.074.304-.197.552l.332-.49c.074-.018.104.019.074.18l-.344.563c-.05.062-.111.044-.179 0a2.25 2.25 0 0 1-.319.67c.147-.094.24-.292.35-.564.019-.08.11.018.08.185l-.08.075.012.123-.104.013v.167l-.092.043c.092.23-.019.372-.246.26-.074.279-.38.137-.227-.111.38-.625.755-1.25.823-2.093.018-.303.209-.433.442-.57.504-.278.682-.76.67-1.3-.11-2.37.54-3.399 1.542-3.807Zm1.34.136c0 .031-.093.043-.21.043-.11 0-.209-.012-.209-.043 0-.018.092-.043.21-.043.116 0 .208.018.208.043Zm-1.187-.012a.96.96 0 0 1 .658-.23h.436c.166 0 .141.168-.012.155h-.308c-.276-.012-.503.075-.73.198-.123.056-.136-.049-.044-.123Zm.885-1.777c-.061.093-.135.148-.153.111-.019-.018.012-.111.061-.21.061-.093.135-.136.153-.112.025.031-.006.13-.06.21Zm-.387-.248.05-.217a.61.61 0 0 1-.308.316c.11-.173.135-.26.104-.316-.135.168-.27.291-.423.322l.073-.198c-.104.05-.153.167-.307.155l.135-.217-.24.106.031-.149-.215.136.08-.185-.245.105-.013-.124-.166.043v-.136l-.147.08-.018-.105-.197.08.012-.154-.147.074-.05-.074-.171.062-.031-.136-.154.154-.03-.123c-.062.043-.105.142-.179.136l-.043-.136c-.08.074-.14.185-.227.198l.019-.186c-.093.08-.166.23-.277.242l.043-.199c-.074.075-.135.21-.227.21l.074-.185c-.105.074-.246.23-.308.217l.043-.186c-.049.031-.092.105-.147.093l.043-.112c.104-.241.32-.278.577-.272.578.019 1.155.043 1.714.198.867.26 1.456.18 1.899-.136.135-.05.172 0 .11.155-.043.167-.153.229-.258.186a.583.583 0 0 1-.184.247l.012-.21c-.104.148-.209.229-.307.241Zm.141.353c-.049.074-.104.112-.123.093-.018-.019 0-.093.05-.167.043-.075.092-.112.11-.093.025.018.006.093-.037.167Zm-.215.031c-.043.05-.08.08-.104.074-.012-.018 0-.086.043-.136.043-.062.08-.093.092-.08.018.018 0 .08-.03.142Zm-.331.05c-.105 0-.185-.031-.185-.075 0-.03.086-.062.185-.062.092 0 .172.031.172.062.006.044-.08.075-.172.075Zm-2.335-1.79c.332-.105.59-.111.793-.148.362-.05.59-.08.878-.217.135-.05.289-.111.455-.248.08-.062.049-.08-.043-.074l-.369.018v-.167l-.147.199-.031-.199-.123.34-.049-.395-.092.427-.05-.415-.153.477-.043-.502-.092.508-.092-.52-.062.52-.104-.49-.043.471-.135-.476-.012.501-.154-.477-.03.428-.105-.415-.043.371-.086-.34-.05.371c-.153-.29-.214-.532-.11-.662.154-.18.362-.217.565-.186a.614.614 0 0 1 .228-.198l.018.093.246-.087.03.093.27-.149c-.153.199-.184.279-.134.279.043 0 .24-.23.3-.167-.135.21-.012.142.216-.044.061.02-.086.168-.062.186.019.019.105-.043.264-.155.043-.03.135-.136.154-.08.012.062-.05.093-.08.136-.166.198-.123.167.166-.018.043-.019.104-.075.147-.05-.196.26-.116.204.179.031.043-.019.092-.093.14-.043-.362.322-.3.365.167.136-.215.248-.166.26.178.043.03-.012.073 0 .11-.018-.153.154-.172.272-.104.229.117-.05.258-.112.332-.093-.148.142-.136.21.049.173.061.025 0 .093-.184.217-.031.05-.062 0-.093-.124-.018.074-.049.074-.08.031l-.043.272-.06-.012v-.155c-.032-.043-.062-.043-.093 0l-.05.21-.091-.049a.454.454 0 0 1-.148.198c-.061-.08-.104-.062-.123.013-.043.012-.061-.019-.104-.013-.03.093-.062.118-.117.056-.08.05-.153.105-.24.186l-.042-.105c-.074.105-.136.167-.179.142l-.073-.074-.11.185-.185.05c0 .05.074.05.196.03a5.1 5.1 0 0 0 .695-.154c.202-.062.43-.093.681-.198.197-.093.424-.26.652-.372.049.044.012.143-.424.49l-.21-.062.118.155c-.05.05-.093.074-.148.061l-.184-.092.061.198c-.135 0-.196-.167-.32-.093l.05.155-.276-.087.049.186-.24-.106-.049.106c-.074 0-.11.018-.123.05.547.092 1.149-.106 1.763-.403.031-.013.043.012.043.062-.049.247-.227.47-.504.662l.08-.334c-.184.087-.393.489-.546.539l.165-.434-.485.402c-.043-.049.019-.167.123-.315-.141 0-.393.34-.43.322-.104-.05.08-.155.123-.23-.135-.012-.227.112-.338.18-.012-.062.061-.136.184-.248l-.399.186c0-.074.154-.136.184-.241-.184.124-.35.21-.393.198l.123-.198-.35.186.215-.23-.369.18.105-.198-.27.173.116-.216c-.135.111-.258.185-.332.185.074-.093.123-.167.111-.216-.123.105-.246.173-.301.173l.05-.173a.877.877 0 0 1-.339.216l.123-.21c.018-.031.012-.075-.03-.044l-.277.23c.061-.112.092-.186.049-.217l-.197.105.019-.111-.227.247c-.031-.012.012-.074.043-.185l-.24.154c.129-.235.332-.402.608-.489Zm.602-2.557c.154-.241.277-.31.363-.124.104-.334.215-.365.362-.074.197 0 .24.303.209.75l-.184-.502v.322c-.13-.545-.928-.223-.75-.372Zm.461-1.839c.03.087-.03.124-.092.044-.135-.155-.105-.353.043-.533.153-.185.35-.185.528-.05.105.081.074.094-.049.094-.356 0-.491.173-.43.445Zm-.203-.538c.019.154-.049.173-.196.074l-.166-.204c-.123-.124-.141-.23-.074-.322l.154-.186a.434.434 0 0 1 .32-.093c.048.043.06.08.048.136-.184 0-.307.106-.393.279.135-.149.277-.248.424-.248.074.019.092.075.092.124-.061-.025-.104-.012-.135.019-.03.05-.123.111-.246.198a.877.877 0 0 0 .338-.155c.074.019.086.062.062.142-.031.05-.074.087-.136.093-.08-.006-.116.037-.092.143Zm-.534-.836c-.338-.49-.596-.885-.854-1.257-.05-.074.012-.08.043-.043.307.384.596.749.927 1.188-.006.075-.036.112-.116.112Zm.129.148c.03-.148.123-.216.227-.229l.227.044c.086.062.074.08-.018.093-.184-.031-.289.012-.344.136-.068.099-.098.111-.092-.044Zm.725.434c.018 0 .049.018.049.062 0 .03-.03.062-.05.062-.03 0-.048-.031-.048-.062 0-.037.018-.062.049-.062Zm.565 3.009c-.03.012-.062-.043-.08-.112a.291.291 0 0 1-.012-.136c.03 0 .061.044.08.112.024.074.024.136.012.136Zm.221-.365-.104-.626-.074.273-.062-.384c-.049-.044-.061.198-.049.532-.092-.093-.08-.365-.073-.668l-.105.29c-.061-.154-.03-.365 0-.563-.061-.05-.104.056-.123.365-.073-.21-.049-.371-.018-.57l-.074.156-.018-.366c.338.335.632.73.854 1.177v.384l-.123-.44c.006.303 0 .501-.031.44Zm8.3 10.296.061-.044.104.415-.307-.173.019-.074C14.062 13.956 10.94 9.67 8.877 6.736c-.03-.154.012-.216.153-.167 2.716 3.616 6.009 8.321 8.84 12.315ZM10.714 7.807c.03.019.049.044.073.05l.05-.05c-.013.075-.031.093-.08.15.012-.032.018-.063.03-.088-.024-.018-.043-.043-.073-.062Zm.215.502c-.013.074-.019.093-.074.142a.264.264 0 0 1 .074-.142Zm.178-.198-.012.03-.013-.012a.386.386 0 0 1-.104.137c.012-.075.018-.124.061-.18-.018-.012-.049-.03-.073-.05-.05.112-.123.211-.228.341.074-.217.148-.384.301-.551-.018.074-.043.136-.061.186a.8.8 0 0 0 .074.062.215.215 0 0 0 .049-.062c0 .03 0 .062-.013.093h.019v.006Zm.4.489c0 .155-.013.198-.124.241-.03-.111 0-.18.123-.241Zm-.105-.062c.012-.043.018-.087.03-.111l.019-.019c0-.012.012-.03.018-.043a.785.785 0 0 0 .062-.075c0 .118-.031.161-.13.248ZM9.958 7.164c.43-.149.946-.149 1.591.198.486.272.94.489 1.37.371.08-.018.092.044 0 .074l-.3.093c-.062.019-.075.062-.105.044-.123-.05-.178-.075-.197-.149h-.123c.062.093.062.136.019.105l-.215-.154c-.062-.044-.08-.031-.05.018l.043.062c.019.031-.018.05-.073.012l-.246-.21c-.061-.05-.104-.05-.092 0l.018.08c.013.044-.104-.05-.184-.154-.03-.044-.08-.044-.08 0v.092c0 .093-.172-.154-.32-.303-.042-.043-.104-.043-.085 0 .043.136.073.21.043.167l-.24-.21c-.043-.044-.135-.075-.11-.013l.073.186c.012.031-.153-.062-.332-.229h-.06c-.118 0 .11.167.079.198-.05.031-.117-.012-.166-.111-.03-.062-.061-.075-.135-.062a.25.25 0 0 1-.135 0c-.11-.013-.11-.062.012-.105Zm.51-.335c.197-.155.412-.21.651-.105.277.173.381.124.62.31.203.154.498.29.848.414.062.019.05.05-.049.106-.166-.112-.289-.186-.184 0-.018.012-.043 0-.061-.031-.185-.167-.332-.248-.437-.242-.135-.167-.196-.18-.166-.043-.012.05-.03.03-.073-.019-.154-.229-.228-.26-.215-.093 0 .031-.019.031-.062-.018-.135-.248-.166-.26-.104-.019-.012.019-.043.019-.074-.018-.117-.23-.123-.21-.123-.075-.178-.247-.215-.21-.178-.043-.117-.167-.166-.173-.166-.043-.092-.093-.166-.08-.24-.019-.042-.006-.042-.03.013-.062Zm1.161-.062c.227.019.455.106.67.23.012.03.018.049-.019.03a.372.372 0 0 0-.215-.093c.019.093.013.137-.03.124-.08-.148-.154-.167-.216-.136-.018.012-.03.019-.049.012-.061-.136-.092-.136-.123-.086-.067-.05-.067-.08-.018-.08Zm1.001-.83c.074-.105.092-.173.074-.272-.012-.086.074-.074.08 0 .018.143 0 .26-.074.335-.049.03-.117 0-.08-.062Zm.547 1.109c.117.093-.012.173-.11.08-.277-.241-.363-.57-.424-.873-.019-.092.043-.123.061-.018.074.285.197.55.473.81Zm-.338-2.378c-.184.05-.209.031-.049-.074a.801.801 0 0 1 .148-.105.762.762 0 0 1 .35-.105c-.178-.112-.516.062-.854.229-.105.05-.135.018-.05-.062.136-.124.216-.155.406-.242a1.31 1.31 0 0 1 .528-.093c.123-.111.24.044.105.168-.043.043-.092.062-.148.093-.147.105-.295.148-.436.191Zm-.245 0c-.031.013-.062 0-.074-.018 0-.019.018-.043.049-.05.03-.012.061 0 .074.019 0 .019-.019.05-.05.05Zm-.516.013a.501.501 0 0 1-.455.08c-.117-.03-.074-.093.03-.105.117-.012.27-.05.474-.142l.24-.112c.11-.05.134-.043.042.05-.104.099-.24.155-.332.229Zm.792-.495c0 .018-.018.043-.05.043-.018 0-.042-.019-.042-.043 0-.019.018-.044.043-.044.03.006.049.025.049.044Zm-1.167.198a1.87 1.87 0 0 1-.393-.242c-.031-.05-.062-.086.08-.05.11.081.27.106.423.106l.013.08c.245 0 .503-.111.761-.29-.012-.013-.061-.02-.11 0-.184.092-.166.03.184-.15.055-.03.092.013.178-.018l.227-.05a8.948 8.948 0 0 1-.577.49c-.289.167-.547.21-.786.124Zm1.536-.372v.062c-.044.012-.044.012-.08.019-.043.012-.08-.019-.013-.044.043-.018.056-.024.092-.037Zm.042-.229a1.41 1.41 0 0 1 .394.012c.258.093.153.174-.013.112-.104-.062-.227-.056-.368 0-.013.105-.184.018-.289.093-.074.03-.08.012-.043-.056a.585.585 0 0 1 .32-.16Zm.59.279c.013.093-.012.167-.073.21.03-.198-.062-.18-.08-.29.08 0 .141.012.153.08ZM14.1 3.9c-.056.05-.062.124-.062.278a.25.25 0 0 1-.123.23c-.049.018-.073 0-.049-.075l.08-.155c.03-.136.018-.216 0-.247-.03-.167.062-.192.154-.031Zm-.21.675c-.03.018-.06.018-.073-.013-.018-.018 0-.05.043-.074.03-.012.061-.012.074.012.012.019 0 .062-.043.075Zm.013.631c.08.08.08.198.012.334-.049-.043-.11-.018-.153-.08-.013-.043-.043-.019-.019-.18a.245.245 0 0 0-.018-.173c-.03-.105.012-.111.135-.062.074.068.086.118.043.161Zm-.713-.396c-.018.03-.049.043-.061.03-.018-.012-.018-.043 0-.073.018-.031.043-.044.061-.02.019.013.019.044 0 .063Zm.35-.297c-.03.123.062.216.013.34-.03.112-.27.093-.27-.012a.32.32 0 0 1 .258-.328Zm.05-.137c-.031-.167-.092-.26-.185-.29-.043-.013-.061-.013-.104-.013v-.062c.074-.018.135-.012.215-.012.135.043.197.111.209.21-.03.093-.068.143-.135.167Zm.166.062c-.031.019-.062.031-.074.013-.012-.013-.012-.044.012-.075.03-.018.062-.03.074-.012.018.012.012.05-.012.074Zm-.093.273c-.049-.08.013-.112.062-.056.061.056.104.124.104.198.013.074-.073.136-.123.074-.049-.061.013-.123-.043-.216Zm-.442.402c.05-.093.135-.124.258-.111.092 0 .148.018.148.111s.012.198-.013.279c-.03.08-.043.074-.147.08-.117 0-.154-.05-.277.019.074-.167-.012-.242.031-.378Zm-.307.31c-.012-.019.012-.056.061-.062.043-.019.092-.019.105 0 .012.025-.013.056-.062.074-.043.013-.098.013-.104-.012Zm-1.198 2.644c.11.29.092.377-.08.674.098-.247.11-.365.08-.675Zm.731 2.637c0 .043-.018.087-.05.087-.018 0-.042-.044-.042-.087s.018-.074.043-.074c.03.006.05.037.05.074Zm.117.012c0 .062-.019.112-.043.112-.019 0-.03-.05-.03-.112 0-.074.011-.123.03-.123.018 0 .043.05.043.123Zm.264-1.058c-.012-.186-.012-.366-.018-.539-.031-.012-.062-.012-.105-.019 0 .168-.018.335-.05.564a9.102 9.102 0 0 1-.018-.57c-.03-.012-.06-.018-.092-.03-.012.154-.043.315-.08.52 0-.186 0-.354.013-.54-.03-.012-.062-.018-.092-.03-.013.21-.031.396-.043.613-.031-.273-.05-.458-.031-.644-.03-.013-.062-.019-.086-.044a2.36 2.36 0 0 0-.05.719c-.073-.322-.08-.508-.011-.737-.019-.019-.043-.031-.062-.043-.03.086-.08.18-.141.278.049-.105.073-.21.104-.303l-.104-.062c-.019.136-.086.272-.184.458.135-.334.147-.644.153-1.04.03.155.05.279.05.396l.116.05c.018-.18.03-.34.03-.539.05.23.074.396.044.551.03.012.061.031.092.031l.049-.08c-.012.03-.018.061-.03.092.018 0 .048.013.073.013.018-.062.03-.136.061-.217 0 .08-.012.155-.012.242.03 0 .05.012.08.012 0-.056.012-.112.012-.18.019.075.019.124.03.186.032 0 .075.013.105.013v-.242c.019.093.043.167.05.242.043.012.08.012.122.012 0-.087 0-.155.013-.248.018.093.03.18.049.248h.104V8.42c.043.149.062.26.074.366.03 0 .061-.013.092-.013 0-.086-.018-.18-.03-.272.042.093.073.18.08.26.018 0 .042-.012.06-.012-.012-.093-.03-.186-.042-.291.043.105.073.185.092.272.018 0 .043 0 .061-.012-.018-.143-.03-.304-.061-.477.24.594.24.86.018 1.467.05-.216.074-.427.062-.644-.019.013-.031.013-.05.019a1.777 1.777 0 0 1-.104.415c.03-.137.05-.273.043-.409a.118.118 0 0 1-.061.019c-.013.093-.043.198-.08.334a2.01 2.01 0 0 0 .03-.322c-.03 0-.06.012-.092.012-.012.137-.03.279-.061.471 0-.155-.012-.31-.012-.458h-.105c0 .136-.024.297-.055.514Zm-.11 1.195c-.044 0-.087-.019-.087-.031 0-.019.043-.044.086-.044.05 0 .093.019.093.044 0 .012-.043.03-.093.03Zm.104.105c.018 0 .043.018.043.043 0 .031-.019.05-.043.05-.012 0-.03-.019-.03-.05 0-.025.018-.043.03-.043Zm.4.173c-.02-.062-.093-.093-.24-.093-.062-.018-.062-.08 0-.092h.38c.123 0 .142.061.062.179.043.204-.215.34-.203.006Zm.208-4.749c0 .013-.012.019-.03.019-.013 0-.031-.012-.031-.019 0-.018.018-.03.03-.03.019 0 .031.012.031.03Zm-.123-.458c0 .031-.043.062-.092.05-.055 0-.092-.031-.08-.062 0-.031.043-.062.092-.056.043.006.086.037.08.068Zm.32.044c-.013.111-.019.241-.062.44-.018.043-.043.018-.061-.02.012-.136.03-.247.049-.414h.074v-.006Zm-.062-.093c0-.019.012-.044.012-.075.05-.05.074-.086.074-.03 0 .043 0 .074-.012.105h-.074Zm.381.142c0 .031-.043.05-.08.044-.049 0-.08-.031-.08-.062 0-.019.043-.044.08-.044.05 0 .08.031.08.062Zm.062-.204-.332.105.018-.21c-.092-.031-.153-.013-.184.074l-.012.074a.306.306 0 0 1-.111-.093c-.043-.043-.117-.018-.258-.012-.03 0-.074-.012-.092-.012l.061.092a.499.499 0 0 0-.117.149.27.27 0 0 1 .123.019c.105.074.215.062.32.03v.28l-.062.012c-.049.018-.061.08-.018.105l.172.08c.074.031.104-.062.104-.124l.043-.321.142.061c.049.013.092 0 .153-.018v.247l-.049.075c0 .074-.018.124-.086.155 0 .092-.012.154-.043.167-.104.111-.135.198-.258.29a.301.301 0 0 1-.196-.018.67.67 0 0 1-.197-.167l-.062-.019.019-.086-.062-.013.019-.08-.08-.013.03-.08-.06-.043.048-.137-.06-.018.073-.105h-.117l.086-.062-.092-.019c-.018-.248.018-.433.135-.563.203-.05.4-.093.547-.075.233.031.393.106.455.21v.063Zm.65 1.028a.682.682 0 0 1 .437-.168c.043.013.104.019.184.013.086.05.05.093-.043.111-.043-.03-.08-.043-.123-.018-.092.018-.104.08-.166.105l-.043-.062c-.123.08-.209.31-.3.427l-.02-.111c-.06.012-.104.142-.196.216.013-.08-.012-.123-.043-.123-.153.105-.27.154-.307.111 0-.074.264-.266.62-.501Zm1.905-.137c.184.019.172.168-.018.155-.486-.018-.824-.012-1.063.149a2.62 2.62 0 0 1 .983-.044c.049 0 .043.031.012.05a.18.18 0 0 1-.135.03c-.092-.011-.184-.018-.289-.03-.368-.012-.7.062-.94.353h.074c0 .018-.043.08-.104.111-.05.031-.05.08-.074.112a.554.554 0 0 0-.092.18l.08.03c-.136.18-.228.291-.246.242.018-.31.123-.595.32-.842.226-.285.638-.57 1.492-.496Zm.633.155.018.013c-.03.18 0 .396.105.6.018-.043-.031-.248-.043-.427V6.89l.08.019c.012.21.08.402.171.427-.073-.112-.08-.26-.08-.384l.111.031c0 .217.074.458.172.47-.092-.123-.092-.29-.08-.427l.019.013a.44.44 0 0 0 .092.21c.043-.05.018-.155-.012-.272.116-.062.245-.05.393.043.049.062.03.093-.043.093h-.074l.166.074c.012.019.043.044-.05.05l-.06.05.214.018c.074.03.062.05.043.08l-.049.062c.185 0 .381.044.62.168-.012.08-.104.074-.276-.019.043.105.21.111.197.18-.018.11-.27.012-.381.154l.276.013c.062.043.043.074-.049.074.142.18.258.229.301.105.043-.093.086-.093.123 0 .172.105.203.112.105.136l-.166.031.196.031c.05.019.05.062.019.093-.135.019-.148.044.104.05.105.05.148.105.105.148-.215.013-.21.044.049.062.061.031.08.075.073.106-.135.03-.11.061.05.061.018.031.043.05.012.08-.154.044-.135.063.061.063.013.074.123.062.166.155.166-.031.24.08.092.08l-.012.031c.24.012.338.074.307.217-.018.062-.338-.124-.209.371l.05.05c.092.018-.013-.23.147-.21.018.012.043.08.012.21-.03.111-.104.167-.215.093-.104-.075-.166-.143-.153-.23l.012-.154c-.11.012-.135-.062-.148-.18 0-.018-.043-.012-.03-.043-.184-.031-.27.03-.32.167-.012.05-.049.012-.073-.043.012-.031-.062.012-.105-.013-.03 0-.018-.074-.049-.062-.018 0-.018.031-.061.031-.031-.012-.019-.08-.08-.018-.043.043-.05.043-.062-.019.013-.05.056-.155-.061-.012-.043.018-.05.018-.074-.031-.061-.173-.104-.186-.123-.031-.03.062-.061.074-.061-.019-.061-.272-.074-.272-.05-.012-.011.111-.042.105-.104-.031-.073-.217-.104.019-.153-.08-.074-.124-.019-.304-.148-.353l.074.365c0 .05-.08.062-.092-.019-.043-.241-.197-.656-.166-.52l.092.502c.012.043-.104.018-.123-.044l-.123-.625c-.03-.18-.03.334.043.551 0 .031-.08.031-.073-.012 0-.05-.093-.644-.123-.613-.074.074.123.668-.03.57-.02-.013-.075-.601-.093-.614-.012 0 0 .57-.018.564-.166-.21.012-.768-.105-.799-.018 0-.074.687-.092.669.074.532.498.55.467.706l-.301-.155c.08.155.209.322.289.501-.093.031.012.155.073.217-.092-.012-.073.056.105.217.043.03.049.062.043.093-.215-.05-.24-.05.116.229-.215-.031-.227-.013.019.155a.28.28 0 0 1 .104.154c.013.044-.03.019-.049.019-.043-.019-.104-.062-.123-.074-.061-.013-.018.074.27.29.074.063.105.112.05.137-.35-.217-.332-.167.049.167.092.149.104.21.074.229-.308-.26-.516-.427.018.111.092.093.117.155.043.168-.534-.409-.246-.137.117.241.018.019 0 .05-.019.043-.516-.383-.534-.29.013.279.018.05.049.093.03.136-.012.019-.049 0-.073-.012-.369-.353-.338-.279.08.303.06.093.092.18-.013.124-.467-.532-.608-.644-.012.167.061.105.074.155-.012.124-.424-.582-.437-.508-.019.112.03.074.03.08 0 .074-.38-.47-.497-.582-.018.105.061.124.049.149-.012.087-.467-.582-.474-.508-.019.093.043.074.061.111-.012.086-.535-.613-.535-.594-.019.075.013.167.013.154-.092.074-.049-.062-.049-.112-.104-.167-.332-.403-.369-.372.018.148-.043.044-.092.044-.153-.012-.357-.446-.387-.446-.117-.019l-.184-.03a.471.471 0 0 0-.105-.137c-.32-.316-.436-.34-.117.062.013.013-.018.019-.012.031l-.362-.062a.17.17 0 0 1-.136-.074c-.153-.273-.245-.378-.503-.625.018.092.215.26.368.52.043.167-.147.092-.209.061-.116-.154-.153-.18-.319-.371-.467-.551-.958-1.176-1.364-1.61.019-.074.019-.155.031-.229.332.52.805 1.071 1.333 1.56-.043-.204-.7-.78-1.106-1.318-.08-.149-.153-.279-.209-.397.013-.062.013-.111.019-.185.276.57.725 1.102 1.339 1.64-.074-.185-.713-.705-1.05-1.257a4.412 4.412 0 0 1-.27-.538v-.093c.282.563.761 1.145 1.338 1.64-.061-.185-.724-.73-1.044-1.256a4.19 4.19 0 0 1-.276-.551v-.105c.27.538.866 1.269 1.413 1.745-.062-.179-.805-.83-1.112-1.343a3.821 3.821 0 0 1-.277-.57v-.148c.228.539.805 1.257 1.37 1.727-.061-.18-.774-.768-1.063-1.257a3.336 3.336 0 0 1-.288-.6c0-.056 0-.112.012-.155.197.551.743 1.22 1.32 1.666-.06-.155-.724-.694-.988-1.152-.178-.303-.258-.502-.32-.644 0-.062 0-.111.012-.173.166.538.682 1.195 1.26 1.653-.043-.155-.664-.644-.928-1.084-.196-.334-.258-.55-.32-.7v-.03c.013-.062.013-.137.02-.198.116.538.607 1.238 1.197 1.715-.043-.137-.608-.626-.848-1.028-.227-.384-.276-.613-.35-.737.19-1.51.817-2.396 1.739-2.55Zm.018-.142c-.03-.031-.08-.105-.043-.136.043-.031.105.03.117.092.018.062-.03.08-.074.044Zm-.38-.44c.319.062.601.105.773.248.105.074.019.142-.049.093l-.215-.112c.013.093-.073.05-.196-.05-.08.081-.185.044-.301-.086l.073.21c.013.044-.03.044-.049.013l-.135-.18c-.08-.092-.025-.148.098-.136Zm1 .335c.277-.013.498-.168.818.012l.147.167c.092.217.013.322-.11.167-.062-.093-.013-.173-.166-.247.08.154.141.31.141.489.24.229.025.278-.043.136l-.092-.427c.018.21.03.365 0 .365-.074 0-.03-.142-.062-.322-.018-.074-.043-.21-.08-.217-.171-.062-.337-.012-.472 0 .227-.012.38 0 .436.062.073.106.08.217.049.322-.05.08-.086.062-.086-.043l-.03-.136c-.013-.075-.093-.087-.21-.075-.073.013-.153.031-.24-.018-.03-.019-.104-.05-.012-.074-.104-.069-.061-.155.013-.161Zm1.948 3.473c.043.043-.104.087-.24-.043-.153-.149-.08-.28.031-.168l.21.21Zm-.81 4.123a.03.03 0 0 1 0 .044l-.044.03c-.012.013-.03.013-.043-.012l-.166-.198c-.012-.012-.012-.03.013-.043l.043-.031c.012-.013.03-.013.043.012l.153.198Zm0 .502c-.02.012-.062-.019-.093-.08-.03-.05-.03-.106-.012-.112.018-.012.061.018.092.074.03.056.03.105.012.118Zm-.025.501c-.136-.303-.301-.538-.473-.798-.074-.106.03-.155.11-.031.166.278.32.52.43.792.055.118-.012.149-.067.037Zm.196-1.207c.074-.012.166.074.184.186.031.124-.018.229-.092.247-.08.013-.166-.062-.196-.185-.019-.124.024-.23.104-.248Zm.074-1.282c0-.136.092-.136.092.019.018.34-.018.693-.061 1.059 0 .05-.093.148-.093.03.007-.427.062-.786.062-1.108Zm.32 2.954c0 .154-.123.167-.136.018-.043-.365-.049-.706-.123-1.009-.043-.198.019-.229.092-.043.111.278.172.619.166 1.034Zm.214-.106c.019 0 .031.019.031.044 0 .018-.012.043-.03.043-.019 0-.031-.018-.031-.043 0-.019.012-.044.03-.044Zm.062-.972c.018-.012.061.031.092.08.018.05.03.106 0 .112-.018.019-.061-.018-.086-.074-.025-.05-.025-.111-.006-.118Zm-1.475-.284c.24.334.443.668.609 1.009.092.21 0 .26-.093.074-.196-.402-.454-.761-.7-1.09-.055-.086.08-.136.184.007Zm-1.824-.756c-.43-.507-.91-1.102-1.29-1.529.012-.062.018-.111.03-.167.308.396.916 1.133 1.266 1.572.184.23.178.217.277.335 0 .05-.043.03-.111.012-.092-.111-.08-.099-.172-.223Zm-.436-.198c-.406-.477-.54-.662-.91-1.083.013-.062.031-.124.043-.199.332.415.879 1.084 1.21 1.486.105.137.031.075.105.155.08.074-.092.074-.141-.03a5.182 5.182 0 0 1-.307-.329Zm-.97-.867c.018-.05.03-.105.042-.155.338.415.516.614.817.991.043.05.289.353.332.396a.16.16 0 0 1-.148-.012c-.374-.446-.694-.811-1.044-1.22Zm-.068.26c0-.018 0-.03.012-.05.018-.043.03-.08.049-.135.307.383.651.767.915 1.12-.03.031-.092.031-.172-.012-.282-.34-.54-.607-.804-.923Zm-.056-.235c-.043-.012-.049-.087-.03-.149.03-.074.073-.123.11-.111.03.019.043.087.018.155-.012.062-.067.111-.098.105Zm.012.57c0-.08 0-.174.019-.273.24.304.455.533.688.83-.03.03-.074.03-.135 0-.19-.204-.357-.34-.572-.557Zm.246.563c-.153.013-.184-.018-.196-.18.073.075.135.106.196.18Zm-.202-.272c-.013-.062-.019-.137-.031-.199.178.18.332.28.497.459a.13.13 0 0 1-.153.018c-.11-.111-.215-.173-.313-.278Zm-1.186-.768c.203-.409.504-.669.786-.892.246-.198.406-.532.535-.904.061-.154.153-.08.073.168-.135.427-.466.749-.688.922-.245.21-.411.44-.65.768-.068.093-.124.05-.056-.062Zm.233-5.083c-.012-.019 0-.062.031-.093.043-.031.074-.043.092-.031.019.019 0 .05-.03.093-.031.03-.068.037-.093.03Zm.074.799c.043.086.062.142.043.154-.012.013-.061-.043-.117-.111-.043-.08-.061-.143-.043-.155.013-.012.068.037.117.112Zm-.018 1.535c.018-.031.061-.043.08-.031.018.019.018.062-.013.093a.062.062 0 0 1-.092.03c-.006-.018-.006-.055.025-.092Zm.866-.34c-.172.24-.289.321-.35.229-.135.167-.277.272-.381.365l-.092.26c-.043.062-.05.08-.062 0 .013-.23.074-.335.166-.396 0-.08.018-.143.08-.186.227-.105.38-.322.577-.384.062-.155.185-.241.35-.458.117-.112.148-.087.093.093-.062.204-.166.371-.381.476Zm-.59 1.745c.215-.074.393-.229.547-.414.166-.106.135-.013.08.105a.465.465 0 0 1-.21.198 1.847 1.847 0 0 1-.454.26 1.094 1.094 0 0 0-.497.353c-.093.074-.136.043-.105-.105.092-.18.32-.291.639-.397Zm.012-.996c-.049.105-.123.247-.123.507 0 .21-.258.168-.165-.074.092-.248.123-.384.215-.47.11-.112.14-.1.073.037Zm.4.458a.645.645 0 0 1-.424.458c-.215.087-.277-.019-.135-.112.153-.092.288-.185.393-.34.147-.217.209-.223.166-.006Zm-.228-.062c-.043.043-.11.043-.073-.019l.196-.396-.245.34c-.074.093-.08.02-.05-.049l.166-.402c.043-.149.11-.23.21-.242l.226-.217c.05-.061.08.019.05.075l-.166.272a1.26 1.26 0 0 1-.314.638Zm.664-.762c-.012.075-.012.155-.08.174-.018.278-.05.507-.135.582-.123.154-.166.136-.123-.075l.074-.371a.737.737 0 0 1 .153-.396l.117-.31c.03-.124.08-.111.08.043l-.074.199c.055.03.025.092-.012.154Zm-.326-1.12c.154-.273.393-.551.67-.811.203-.143.246-.112.135.111-.301.427-.596.935-.866 1.084-.123.012-.215.086-.289.198l.184-.093c.093-.013.105.018.043.08-.153.087-.411.49-.473.23-.104.197-.276.167-.288.365l-.019.26c-.043.074-.074.074-.117 0-.03-.372.05-.595.228-.718.473-.291.639-.719.792-.706Zm-.608-.44c.03.062.043.112.03.124-.011.012-.048-.031-.08-.093-.042-.062-.048-.124-.042-.124.012-.006.055.031.092.093Zm-.006-.297c-.043-.08-.05-.155-.019-.155.031 0 .105.062.154.155h-.135Zm.166.037c.018.05.043.093.043.124h-.117c-.018-.031-.043-.062-.061-.105-.013 0-.013-.013-.013-.019h.148Zm.067-.57c-.122.044-.092-.08-.018-.03l.123-.168c.11-.154.245-.272.38-.371.117-.013.136.018.05.093l-.148.074c.019.074-.073.26-.135.279-.049.012 0-.174-.08-.031l-.172.154Zm-.098.75h.092c0 .03 0 .05-.018.05-.019 0-.043-.02-.074-.05Zm1.358-.477c-.105 0-.246.093-.486.396-.061.08-.135.013-.049-.093.148-.18.32-.303.486-.371.196-.093.184.068.049.068Zm-.523-.52c.228-.143.486-.23.787-.186.184.019.184.136.08.124-.289-.043-.565-.031-.848.105-.104.05-.08-.006-.018-.043Zm-.22.402c-.031.031-.044 0-.013-.08.184-.217.504-.366 1.106-.353.123.012.104.136-.012.124-.093-.013-.197.03-.29.05-.116.03-.239.043-.337.104-.209.112-.393.304-.56.564-.06.03-.073.012-.042-.062.209-.372.454-.57.713-.594l.012-.019c-.142-.037-.32.031-.578.266Zm-.136.539c.258-.427.535-.644.817-.73.092.012.135.043.062.123-.228.093-.443.273-.652.52.019.093-.018.18-.122.242 0 .154-.092.229-.246.247l-.227.291c.049.075-.031.186-.197.353-.104.112-.147.08-.123-.105.123-.34.363-.842.473-.842.062 0 .062-.019.086-.136.012-.08.092-.062.074 0-.012.093.006.105.055.037Zm-1.265-1.102c-.013-.08.018-.167.116-.242.062-.043.08.031.05.075-.062.074-.117.074-.166.167Zm-.05 1.312c.05.031.08.062.105.093a.36.36 0 0 0-.043-.247c.104.05.166.148.172.278a.376.376 0 0 0-.018-.29c.092.03.153.11.24.247l-.02.21c.02.062.02.112-.011.155-.043-.05-.08-.074-.136-.043l-.012.167c-.03-.074-.074-.08-.117-.031l-.147.136-.043-.093-.019-.414.062-.044-.012-.124Zm.05 3.913c.049-.241.184-.445.38-.613.216-.167.455-.241.732-.427.08-.05.104-.018.049.093a.631.631 0 0 1-.406.217c-.227.05-.38.247-.534.501l.454-.334c.105-.031.123 0 .062.08-.485.248-.424.564-.62.632-.044-.05-.031-.124.018-.217l-.135.068Zm.682.329c0 .061-.019.105-.031.105-.019 0-.03-.044-.03-.105 0-.05.011-.106.03-.106.006 0 .03.056.03.106Zm.43-.632-.35.31c-.111.061-.246.26-.443.563-.123.05-.135.018-.061-.074.049-.093.153-.18.215-.26.049-.087.049-.155.11-.217a2.37 2.37 0 0 1 .486-.502c.209-.136.362-.383.497-.724l.019.062c-.05.49-.203.78-.473.842Zm-.05.477c-.104.136-.165.303-.245.446-.03.061-.123.136-.105-.031a.713.713 0 0 1 .29-.49c.14-.099.171-.068.06.075Zm-.184-.05c-.092.093-.117.08-.061-.043a.571.571 0 0 1 .331-.279c.123-.03.08.043.043.075-.11.08-.22.142-.313.247Zm5.99 3.405a.27.27 0 0 1 .24.137c.049.08.122.167.214.241-.24-.371-.245-.532-.043-.396.185.111.29.303.258.582.05.142.031.18-.24 0-.104-.062-.116-.093 0-.143l-.319-.247c.277.44.074.322-.135.018.154.34.043.217-.166.05h-.049c.363.29.062.217-.178.043l-.043.019c.627.445-.03.21-.307.03.197.18.424.304.375.31-.148.044-.412-.086-.725-.216.245.154.467.247.331.29-.049.032-.288-.08-.7-.247-.104-.019-.135-.012-.092.03.363.137.565.248.528.304-.061.075-.338-.062-.73-.26-.111-.05-.246-.105-.382-.18.228.242 1.125.564.94.657-.073.03-.227-.031-.424-.136a8.99 8.99 0 0 1-.743-.477c-.215-.18-.412-.353-.565-.49l-.012.05c.534.595 1.566 1.121 1.247 1.102-.123 0-.08.013-.184-.043-.72-.371-1.217-.966-1.567-1.455l-.018.019c.442.7 1.271 1.269 1.185 1.343-.08.062-.596-.365-.928-.724-.24-.248-.276-.353-.534-.706l-.012.08c.694 1.177 1.59 1.394 1.4 1.536-.055.043-.086-.012-.135-.043-.823-.502-1.05-1.09-1.486-1.61l-.019.043c.289.47.762.985 1.167 1.468.05.061.013.123-.043.092-.442-.29-.847-.922-1.296-1.622l-.012.044c.38.736 1.216 1.622.97 1.56-.049-.025-.227-.273-.423-.551a15.285 15.285 0 0 0-.424-.595l-.019.075c.21.322.516.675.62.966l-.03.012-.67-.885-.042.043c.276.353.62.762.565.854l-.59-.687c.03.21.227.384.166.44a1.85 1.85 0 0 1-.301-.446c-.043-.074 0 .112-.05.05a11.16 11.16 0 0 1-1.142-1.58c-.062-.104-.043-.11.074-.043l.823.873c-.529-.582-.885-1.04-.805-1.114.276.34.578.662.91.966-.664-.762-.947-1.12-.867-1.115.172.106.59.6.928.979-.467-.644-1.045-1.177-1.045-1.282 0-.05.123-.05.166 0 .277.384.62.737.97 1.114-.257-.408-.927-1.052-.896-1.114.03-.05.104-.05.209 0 .227.34.473.632.792.935-.227-.322-.755-.86-.7-.935.012-.019.092-.043.135.012.105.168.227.291.363.477.092.111.215.242.338.353l-.627-.823c.018-.019.043-.031.061-.019.031 0 .062 0 .092.03.136.261.369.49.609.763l-.529-.75c.013-.062.185-.03.228 0l.442.644c-.184-.446-.455-.662-.32-.656.136.018.228.136.345.29.073.106.153.18.208.249l-.288-.471c0-.043.104-.018.196.031l.197.217-.092-.186c.012-.062.08-.031.135 0l.172.279.03-.019c-.104-.173-.178-.26-.122-.279l.153.019.148.167c-.043-.186.135-.142.424-.043.184.062.362.278.528.625-.043.019-.117-.074-.197-.173-.043-.05-.061-.075-.123-.136.21.352.412.693.443.872-.062.05-.289-.34-.547-.798.135.365.307.687.362.83-.03.012-.122-.168-.258-.384-.043-.062-.092-.093-.135-.168l.332.67c.061.03.104.104.061.197-.061.112-.018.155.105.26.123.08.393.136.743.08.442-.067.916-.16 1.4-.173Zm-.338-1.325.05.137.042-.093c.074-.044.08 0 .05.124l-.02.445c-.042.062-.073.18-.11 0l.062-.408-.074.148c-.061 0-.074-.062-.086-.185-.006-.149.006-.205.086-.168Zm.393-.13c.03-.092.074-.105.123-.05.184-.302.148-.135.061.094l.05.03c.227-.426.135-.08.11.106-.166.21-.276.248-.332.105l-.049.273c-.043.123-.073.142-.092.05.012-.199.055-.41.13-.608Zm-2.519 5.38c.043.125.136.31-.135.05-.166-.086-.184 0-.049.26l.277.403a.71.71 0 0 0 .24.476l.227.471c0 .074.043.142.06.21.032.18.075.273.216.291-.148.28-.332.54-.639.706-.608.335-1.093.198-1.044-.613.03-.44.11-.798.123-1.25.171-.694.012-1.053-.59-1.09-.307.012-.547.012-.719.136-.166.112-.405.075-.725-.111-.62-.47-1.081-.718-1.394-.718.3.34.38.687.147 1.027.246.112.24.23-.012.34-.596.02-1.266-.104-1.972-.302-.227-.044-.27 0-.11.123.515.21.792.52.792.96-.332.012-.608.03-.762.062-.147.093-.301.087-.442-.093-.369-.384-.412-.73.012-1.021.24-.168.59-.552 1.02-1.134.288-.018.546-.08.835-.123 1.155-.143 2.249-.397 3.127-.886.166-.05.289-.018.362.106l.682.903-.196.075.516.396c-.092.074-.03.124.08.167-.062.093-.019.186.073.18Zm.043-.39c.031 0 .062.032.062.075 0 .03-.03.062-.062.062-.043 0-.073-.031-.073-.062 0-.037.03-.074.073-.074Zm.05-.662c.049-.05.11-.08.135-.062.018.019-.013.075-.062.137-.049.049-.116.092-.135.074-.018-.025.012-.087.062-.149Zm.092.378c-.031.018-.043.093-.043.272a.493.493 0 0 1-.043-.353c.073-.185.147-.241.209-.241.129.13-.08.217-.123.322Zm-.08.675c-.043-.013-.05-.062-.019-.112.019-.05.062-.08.093-.062.043.013.049.062.018.112-.018.05-.061.08-.092.062Zm.233.173a.177.177 0 0 1-.153.074c-.05-.018-.062-.086-.031-.136.03-.05.104-.093.166-.074.055.025.061.074.018.136Zm.099.21a.106.106 0 0 1-.136-.03c-.018-.031-.012-.075.043-.093.05-.019.105-.013.136.018.024.044.006.08-.043.106Zm-.043-1.058c.092-.105.135-.012.24.03l-.124.063.136.043-.123.062.227.111-.141.044.184.111-.166.043c.166.05.27.093.258.15l-.178.043c.074.03.215.043.227.105.012.05-.117.018-.166.03l.154.106h-.141l.104.056c-.012.093-.05.142-.11.154-.166-.018-.031-.123-.148-.272-.32-.433-.295-.786-.233-.88Zm.823 1.077c.018-.03.018-.087-.03-.093-.05-.012-.08-.012-.111-.062-.044-.123.018-.185.122-.216.08 0 .11.03.092.08l-.049.043c.093.031.154.062.185.112-.05 0-.086.012-.092.05.171-.031.165.247.012.198-.105-.031-.154.012-.105.185.043.21.185.26.172.044-.018-.106.332-.124.375.105l-.135-.056c.03.167.166.093.184.242l-.11.012c.135.093.24.21.288.34-.147-.018-.153-.179-.288-.179.172.241.38.186.485.427-.147-.012-.32-.124-.516-.31.178.248.289.459.246.564-.258-.118-.308-.501-.412-.613 0 .198.147.316.092.533-.104-.124-.153-.322-.153-.632.104.019.147-.05.147-.229-.018-.186-.11-.173-.092 0 0 .136-.092.18-.369.012-.043.044.019.093.178.186l-.012.155.08-.136.03.433c-.012.111-.042.093-.073-.019l-.03-.216c0 .155-.02.229-.074.216l-.043-.408-.117.142-.03-.229-.105.08v-.272c-.074.044-.154.013-.24-.111a.308.308 0 0 0 .277-.044c-.043-.21.049-.315.22-.334Zm-.731 3.226c-.019.062-.062.105-.086.093-.013 0 0-.062.018-.124.03-.062.062-.105.08-.093.018 0 .006.062-.012.124Zm-.166 0c-.05.08-.105.155-.135.148-.031-.012-.019-.092.03-.185.043-.093.105-.155.136-.143.024 0 .012.087-.031.18Zm.061 1.579c.08.018.074.123.074.198-.05-.056-.104-.118-.154-.056-.147-.111-.196-.05-.3-.018.042-.106.196-.205.38-.124Zm-.411-1.759c-.031.075-.074.124-.092.112-.019-.013-.013-.075.018-.143.03-.08.074-.136.092-.123.025.012.012.074-.018.154Zm-.486 1.58c-.018.049-.08.042-.196-.032-.166-.105-.123-.21.049-.303.067.18.356.297.147.334Zm-.043.457c-.03 0-.061-.018-.061-.05 0-.043.03-.061.061-.061.043 0 .074.018.074.062 0 .03-.03.05-.074.05Zm-.202 0c-.013 0-.031-.018-.043-.062-.013-.03-.013-.062.012-.074.012 0 .03.019.043.062.006.037.006.068-.012.074Zm-.093.075c-.018.012-.055-.019-.073-.087-.012-.05-.012-.105.012-.105.018-.013.05.03.074.086.006.056.006.105-.012.105Zm-.043-1.375c.05-.062.111-.093.136-.074.03.018.012.086-.043.148-.05.062-.105.093-.123.075-.03-.019-.012-.08.03-.149Zm-.073-.173c-.019-.013-.013-.075.03-.124.013-.019.031-.031.044-.043-.013-.013-.013-.019-.019-.019-.043.05-.092.074-.11.062-.019-.019-.013-.074.03-.124 0-.012.012-.018.019-.018-.019-.02-.019-.031-.031-.044-.03.019-.05.031-.074.019-.012-.013 0-.05.03-.093-.017-.044-.03-.08 0-.105.062-.05.093.024.155.154.018.05 0 .08.03.112.019.043.08.062.105.093.073.111.061.21.049.216-.019.013-.012-.012-.05-.092-.012.012-.018.018-.018.03-.043.044-.08.075-.092.05-.018-.012-.012-.062.018-.105l.043-.044c-.012-.012-.012-.018-.018-.03-.012.012-.012.018-.018.03-.05.062-.099.093-.123.075Zm-.246-3.827a.588.588 0 0 1 .35.384c.012.106 0 .155-.073.075a1.069 1.069 0 0 0-.277-.459Zm.258.663c0 .111-.05.186-.08.087-.043-.149-.117-.446-.258-.595.19.062.338.304.338.508Zm-.166.303c-.104-.142-.135-.365-.258-.52.178.124.246.143.332.434.018.117-.012.18-.074.086Zm-.049.23c-.08-.093-.123-.248-.227-.341.135.074.196.087.27.279.018.074.006.123-.043.061Zm-.061.29c-.019-.08-.105-.167-.123-.247-.013-.05.018-.044.061 0 .092.123.068.154.062.247Zm-1.395-1.473c.012-.013.05 0 .105.03.049.032.073.063.061.075-.012.019-.05.012-.104-.018-.043-.038-.074-.081-.062-.087Zm-.89-.65c.257.062.528.278.792.507.043.075.018.093-.043.062-.178-.055-.449-.371-.75-.57Zm.847 1.969c.018-.155.012-.304.03-.291.032 0 .08.154.062.303-.03.155-.074.279-.104.272-.03-.018-.006-.142.012-.284Zm-.246.037c.019-.124.062-.217.08-.217.031 0 .031.105.013.23-.019.123-.05.216-.086.216-.019 0-.031-.1-.007-.23Zm-.227.024c.012-.123.03-.229.062-.229.03.013.043.106.03.242-.018.111-.043.217-.073.217-.019 0-.031-.106-.019-.23Zm-.166.032c0-.112.019-.211.043-.211.019 0 .043.093.043.21 0 .112-.018.211-.043.211-.024 0-.043-.1-.043-.21Zm.56 2.024a.63.63 0 0 1 .06.155l-.03.037a2.1 2.1 0 0 1-.03-.192Zm1.228-.57c-.172.459-.424.737-.639 1.04 0 .013-.018.02-.018.032a.11.11 0 0 0-.031.043l.03-.05c-.012-.05-.018-.105-.03-.155a.26.26 0 0 1 .049.112c.03-.05.061-.105.092-.155-.012-.05-.018-.105-.03-.167.018.043.042.074.06.111.02-.043.05-.08.075-.123-.019-.05-.031-.112-.05-.174.031.044.05.087.074.124a.922.922 0 0 0 .08-.155c-.012-.055-.03-.105-.043-.154.018.03.043.061.061.105.031-.093.05-.167.062-.23l-1.063.657c.092-.08.19-.149.277-.23-.013-.061-.019-.135-.031-.197.03.05.049.111.074.167a.774.774 0 0 1 .073-.062c-.012-.087-.018-.167-.03-.248.043.075.061.149.08.21.03-.018.06-.049.092-.073-.013-.106-.019-.217-.043-.335.049.093.08.186.104.279.03-.031.05-.056.08-.074-.012-.149-.03-.31-.05-.47.074.148.124.278.124.395.018-.018.043-.03.061-.05a4.978 4.978 0 0 0-.061-.507c.08.155.135.31.147.433 0-.012.018-.018.03-.03 0-.168-.03-.397-.06-.601.104.198.153.384.134.52l.062-.062c-.012-.303-.117-.57-.209-.854-.043.142-.043.198-.08.186.019-.168.012-.242-.018-.26-.019.228-.074.37-.148.445l.043-.371h-.061c-.05.272-.062.353-.166.445.043-.167.018-.29.018-.322a.183.183 0 0 1-.073.02v.03a.515.515 0 0 1-.117.409c-.012-.149.05-.279.05-.428l-.08.032v.142a1.83 1.83 0 0 1-.08.229c.012 0 .048-.303.018-.365-.019.012-.05.012-.074.018v.044c-.012.03-.012.061-.03.061-.013 0-.019-.018-.019-.05-.012-.011-.012-.03-.018-.042-.013 0-.031 0-.05.012v.012c.013.031.013.05 0 .062-.012 0-.03-.03-.049-.062-.018 0-.043.013-.049.013.012.05.012.074-.03.093-.05.018-.05-.031-.062-.08-.03.012-.061.012-.092.018.012.043 0 .074-.013.074-.012.012-.03-.019-.049-.062h-.08c.013.043.013.062 0 .074-.012 0-.03-.018-.049-.061-.012-.013-.012-.031-.018-.05-.03-.062-.043-.124-.03-.136.018-.013.048.03.08.105.011.019.018.05.018.074a.145.145 0 0 1 .073-.018c0-.019 0-.031-.012-.044-.019-.08-.019-.154 0-.167.018-.012.05.05.074.136 0 .013.012.031.012.05l.08-.031c-.012-.05-.012-.074-.012-.105 0-.044 0-.062.012-.062.012-.013.061.062.08.148.018-.012.03-.012.049-.018-.013-.012-.013-.012-.013-.019-.018-.062-.018-.086-.018-.124-.012-.03-.012-.043 0-.055.012-.013.062.074.08.142 0 .012 0 .025.012.031.019-.012.031-.012.05-.019v-.159c0-.044.012-.062.018-.062.012 0 .018.018.03.05.013.043.019.092.031.142.019 0 .043-.013.062-.019v-.087c.012-.03.012-.05.018-.05.012-.012.03.05.043.106l.08-.03v-.112c0-.031.012-.062.018-.062.013-.013.019.012.019.043a.269.269 0 0 1 .018.105c.019-.012.043-.012.062-.03 0-.063.012-.124.012-.168.012-.043.018-.074.03-.074.013-.013.02.012.02.05.011.043.011.092.011.154a.118.118 0 0 1 .062-.018c.074-.291.166-.688.166-1.04-.019-.044-.043-.075-.062-.112-.018.396-.049.73-.172.947a2.57 2.57 0 0 0-.012-1.058h-.031c.013.427.013.78-.104 1.021.043-.34.03-.706-.105-1.114a.118.118 0 0 0-.061-.019c.092.087.074.415.03.47-.06-.197-.012-.26-.184-.396h-.049c.092.106.105.26.08.384a1.347 1.347 0 0 0-.215-.334h-.092c.135.155.135.186.117.316-.05-.136-.258-.23-.338-.291-.043 0-.05.012-.092.012.104.05.245.242.196.303-.073-.08-.227-.167-.288-.278-.043 0-.019.018-.062.018.019.062 0 .106.012.18-.092-.019-.141-.031-.258-.155-.018 0-.061-.012-.061 0 .012.031.049.105.061.136-.018-.03-.24-.148-.258-.18-.012-.012.043-.012-.08-.018l.093.23a3.425 3.425 0 0 0-.197-.217c-.05-.013-.092-.013-.141-.019l-.092-.155a6.14 6.14 0 0 0 1.597-.105l.577-.111c.197-.062.332.043.369.34l.03.334c.123.174.173.397.05.694.049.217.178.402.362.563.16.118.178.34-.012.65Zm-1.352-.414c.031-.087.043-.112.074-.112.018 0 .03.043.03.136 0 .093 0 .174-.073.168-.074-.019-.055-.1-.03-.192Zm-.104-.044c.012-.03.018-.05.03-.05.013 0 .013.02.02.05h-.05Zm.006.285c-.043-.012-.043-.093-.018-.186h.061c0 .112 0 .192-.043.186Zm-.123.019c-.061-.013-.049-.075-.03-.137.018-.074.03-.092.049-.092.018.012.03.03.03.105.007.068.007.124-.049.124Zm-.135 0c-.043-.013-.03-.062-.018-.112h.061c0 .056 0 .112-.043.112Zm-.215-1.102c-.03 0-.043-.075-.043-.18 0-.093.012-.18.043-.18.019 0 .043.087.043.18 0 .105-.018.18-.043.18Zm-.043.755c-.043.018-.03-.019-.05-.08a.287.287 0 0 1-.011-.137c.018 0 .049.05.073.112.019.068.019.099-.012.105Zm-.129-.755c-.018 0-.05-.093-.05-.21 0-.112.02-.211.05-.211.018 0 .05.092.05.21s-.02.21-.05.21Zm-.055.693c-.019-.05-.031-.105-.019-.105.013-.013.031.03.05.074.018.05.018.105.018.105-.006.013-.037-.03-.05-.074Zm-.074-.724c-.018.012-.061-.062-.08-.155-.018-.093-.03-.18-.012-.18.03-.012.061.062.092.155.025.093.025.18 0 .18Zm-.16.018c-.073.013-.049-.03-.073-.124-.013-.08-.013-.185.012-.185.018-.013.08.092.092.173.019.087.03.124-.03.136Zm-.196-.018c-.019 0-.062-.075-.074-.155-.018-.093-.018-.167 0-.167.03-.013.061.062.08.148.025.087.012.161-.006.174Zm-.166-.044c-.019.013-.05-.043-.08-.123-.018-.081-.03-.143-.012-.155.012 0 .049.05.08.136.018.068.03.142.012.142Zm-.227.013c-.043.012-.031-.019-.043-.093-.013-.062-.013-.136 0-.136.018 0 .061.061.073.136.013.062.019.093-.03.093Zm-.148-.966-.074-.124c.019 0 .05 0 .08.012l.08.137c-.024-.007-.055-.019-.086-.025Zm-.006.953c-.018 0-.043-.03-.061-.08-.019-.062-.031-.105-.013-.105.013-.013.043.03.056.08.018.056.024.093.018.105Zm-.221-1.015c-.019-.043-.08-.031-.135-.05-.05-.018-.031-.03-.123-.05.092.013.184.02.276.032l.062.105-.013-.012c-.024-.006.099.328-.067-.025Zm.03 1.028a.18.18 0 0 1-.06-.106c-.013-.05 0-.086.017-.086.019.012.05.062.062.117.012.05.006.08-.018.075Zm-.196 3.368c.061-.031.123-.031.135 0 .012.03-.03.074-.092.093-.062.03-.123.018-.135 0-.019-.031.03-.075.092-.093Zm.326.105c.018.031-.043.093-.123.124-.08.03-.166.03-.172-.012-.013-.032.043-.087.122-.124.074-.031.16-.031.173.012Zm-.529-.223c-.012-.018.019-.05.074-.074.05-.019.092-.013.104 0 .013.03-.018.062-.073.074-.056.025-.093.025-.105 0Zm-.178-3.306c-.332.31-.577.638-.62.947-.111-.155.123-.55.497-1.04-.227.18-.436.409-.626.669.043-.167.178-.396.362-.644-.405.303-.682.749-.639 1.579-.153-.502-.049-.979.27-1.45l-.442.471.4-.625-.246.08.018-.092-.153.074v-.105l-.21.167.044-.18c-.074-.043-.123.019-.185.106-.061-.21.166-.279.4-.18.184.074.411.105.712.043.148-.03.301-.03.455-.012.153.093.141.161-.037.192Zm-.276.52c-.031.05-.074.087-.08.074-.012-.012 0-.062.03-.105.031-.056.074-.074.08-.074.019.024 0 .068-.03.105Zm-.092.26c-.031.062-.062.105-.08.093-.019 0-.013-.062.012-.111.03-.062.061-.106.086-.093 0 .012 0 .062-.018.111Zm-.148 2.266-.227-.198c-.062-.124-.012-.217.104-.303.012.093.043.167.092.21.105.087.13.21.031.291Zm-.037.96c-.049 0-.104-.013-.104-.031 0-.019.03-.044.08-.044.061 0 .104.019.104.044.012.018-.03.03-.08.03Zm-.209-.106c-.012-.012.043-.043.105-.049.061-.019.123-.019.135 0 .012.012-.03.043-.092.062-.074.006-.135.006-.148-.012Zm-.166-.061c-.018-.019.043-.062.142-.08.092-.02.184-.032.209-.013.012.018-.05.062-.148.08-.098.031-.178.031-.203.013Zm.056-2.514c0-.074.018-.124.043-.124.018 0 .043.05.043.124s-.019.136-.043.136c-.025-.006-.043-.068-.043-.136Zm.006 2.346c.08-.018.178-.03.184-.012.019.019-.043.056-.123.087-.08.018-.166.018-.184 0-.006-.019.043-.05.123-.075Zm-.215-.216c-.012-.019.03-.044.086-.044.055 0 .104.019.104.044 0 .012-.03.03-.08.03-.067 0-.11-.012-.11-.03Zm-.27-2.322c.03.149.073.272.147.334.018.075-.018.112-.055.087a.58.58 0 0 1-.092-.421Zm.104 1.436c-.074-.043-.092-.136-.08-.21.019-.043.074-.043.08.012.012.05.018.087.061.124.043.031.025.118-.061.074Zm-.233-.05c-.062-.073-.043-.185.012-.26.043-.049.092-.018.08.044-.019.062-.013.105.018.174.019.049-.043.136-.11.043Zm-.179-4.234c-.043-.043.031-.087.05-.062l.122.111c.031.031-.043.081-.073.062l-.099-.111Zm.713-.663c-.043-.043.012-.105.05-.074l.165.143c.043.043-.03.111-.061.08l-.154-.148Zm-.178.062c-.05-.05.012-.123.061-.08l.197.167c.049.05-.03.124-.074.093l-.184-.18Zm-.135.106c-.062-.062.018-.143.073-.093l.228.198c.061.05-.031.148-.08.105l-.221-.21Zm-.19.167c-.044-.05.055-.124.104-.093l.184.186c.05.05-.074.136-.104.093l-.185-.186Zm-.013.353-.104-.105c-.019-.032.03-.075.049-.05l.104.105c.03.025-.03.068-.049.05Zm-.043-.198c-.043-.044.03-.093.061-.062l.123.123c.031.032-.049.081-.073.05l-.111-.111Zm-.11-2.068c.018-.075.092-.118.214-.124l1.383-.21c.073-.013.08.03.073.123a.974.974 0 0 1-.104.366c-.05.043-.062-.137-.05-.403-.104.248-.06.508-.226.551-.074-.118.043-.334.06-.501-.153.142-.104.321-.239.507-.049.013-.043-.167-.012-.445-.074.21-.135.377-.209.445-.043-.062-.043-.216-.03-.384-.062.273-.136.459-.197.49a1.534 1.534 0 0 1 .012-.446l-.03-.031c-.044.26-.08.415-.148.489a.616.616 0 0 1 .018-.477H11.5c-.043.136-.061.248-.123.291-.08-.012-.123-.105-.123-.26-.073.291-.178.446-.288.539a1.414 1.414 0 0 1 .08-.52Zm.399-3.176c.061 0 .104.018.123.086l-.123.075.153.043-.018.043-.215.05.092.074-.074.062.142-.019-.013.062-.153.062c.11.012.166.043.135.075l-.135.08.11.043-.147.062.123.08-.154.05c.105.031.141.087.154.112l-.166.074c.092.043.11.062.11.111l-.153.062.123.093-.123.037c.104.044.117.093.123.136l-.148.044c.117.043.166.074.148.111l-.178.08.165.02v.043l-.165.05c.122.049.165.092.165.136l-.153.092.166.031-.154.112c.092-.013.148.012.148.062l-.148.074c.11.018.24.043.35.074l.043.05.031-.05a.26.26 0 0 1 .215 0l.074.105.049-.123.074.136.061-.167.086.229.061-.242.074.199.062-.217.049.173.049-.204.092.198.074-.248.092.21.061-.166.099.154.049-.18.061.125c.05.105-.061.198-.178.216l-1.536.248c-.092.012-.184-.062-.227-.272-.074-.384-.043-.762.012-1.133.099-.836.228-1.251.363-1.524Zm1.53-1.047c-.087.062-.166.112-.173.093-.018-.018.043-.093.123-.155.08-.074.166-.111.178-.105.013.019-.049.093-.129.167Zm.411 1.69.061-.31c.074-.043.105-.018.093.063l-.136.26-.018-.013Zm-.117-.328c.043-.086.123-.062.092.019-.086.458-.166.842-.178 1.442l-.043-.092c.062-.54.062-.849.13-1.369Zm-.227 1.58h-.03c-.032-.583-.013-1.103.104-1.604.03-.044.08-.031.073.018-.08.452-.135.985-.147 1.585Zm-.823-2.663c-.043 0-.062-.031-.062-.062 0-.043.019-.074.062-.074.03 0 .061.03.061.074 0 .03-.03.062-.061.062Zm.123-.136c0-.031.018-.05.043-.05.03 0 .049.019.049.05 0 .03-.019.062-.05.062-.018 0-.042-.031-.042-.062Zm.086.117c.135-.093.27-.155.288-.124.019.031-.073.137-.215.242-.147.093-.27.148-.3.111-.013-.03.08-.136.227-.229Zm-.547.86.03.075c-.214.793-.239 1.498-.091 2.13-.093-1.084-.013-1.703.171-2.037v.105c-.14.762-.153 1.375-.018 1.87l.043-.03a6.146 6.146 0 0 1 .08-2.02l.074.013c-.148.799-.148 1.424-.043 1.994l.043-.044c-.08-.823-.074-1.393.049-1.913l.061.013c-.116.792-.123 1.411-.018 1.925l.043-.012c-.086-.86-.043-1.474.074-1.932l.043.043a7.55 7.55 0 0 0 0 1.864l.042-.019c-.018-.749-.06-1.343.031-1.776l.05-.062a6.948 6.948 0 0 0 .018 1.85h.043c-.074-.81-.05-1.423.03-1.925l.044.031a12.27 12.27 0 0 0 .012 1.901l.043-.012c-.043-.898-.012-1.511.08-1.87.08-.031.08.074.012.186-.05.538-.074 1.083 0 1.677l.061.013c-.061-.86-.012-1.362.086-1.851.05-.05.105.012.043.136-.073.6-.116 1.027-.049 1.715h.074c.08.03.092.062.012.093-.504.105-.989.198-1.456.229-.092.012-.123-.044-.123-.18-.03-.737.05-1.412.228-2.024l.03-.013c-.135.737-.196 1.443-.092 2.08-.073-.996.056-2.043.24-2.222Zm1.173 2.892.166.167c.092.087.03.155-.049.112l-.203-.124c-.117-.074.012-.217.086-.155Zm-.123.186.308.229c.092.074 0 .198-.074.149l-.332-.21c-.11-.075.018-.242.098-.168Zm1.444-2.898-.633.669c.074-.074.142-.105.21-.167.27-.242.441-.415.392-.279a.989.989 0 0 1-.405.44l-.258.278-.019.062c.277-.29.424-.371.455-.303l-.498.594.547-.427c-.166.26-.38.49-.67.687v.05c.302-.248.529-.402.547-.334-.049.123-.24.31-.46.52l.276-.136c.018.11-.043.198-.166.26-.153.043-.24.105-.24.167l.185-.075c.012.062-.092.168-.246.291l.215-.062c.012.05-.074.155-.276.304l.196-.044c.013.05-.03.106-.116.18l.276-.093c-.012.062-.043.112-.135.143l.018.05c.166-.094.172-.02.11.012.044.018.154-.02.062.136.11-.05.185-.013.166.074.215.03.209.248.012.23-.104.011-.208.018-.307.049-.123.05-.184.043-.215-.106-.073-.272-.166-.427-.276-.489-.375-.155.073-.34.11-.508.019-.167.093-.247.197-.29-.123.012-.123-.081.012-.273-.061-.012-.092-.043.105-.278-.154.049-.185.012.043-.28-.197.112-.197.044.012-.216-.092-.03-.086-.105.03-.21-.165.012-.134-.062-.048-.124.337-.167.743-.644.804-.582l-.012.08Zm-.639 3.325.369-.03c.073 0 .135.043.196.123l.178.198c.074.093.013.167-.061.143a4.738 4.738 0 0 1-.713-.28c-.049-.061-.043-.11.031-.154Zm.743.502c.148.03.093.105-.018.105a.995.995 0 0 1-.473-.093 2.173 2.173 0 0 1-.436-.279c-.05-.043-.012-.105.074-.061.319.167.583.253.854.328Zm.916-1.833c.104-.074.141-.05.135.062-.03.322-.074.594-.166.675v-.564l-.043.013c-.03.278-.074.489-.141.57l.018-.52h-.049l-.11.507.03-.446c0-.062-.018-.074-.049-.043-.074.52-.166.737-.27.81.104-.333.104-.563.08-.76l-.031-.02c-.03.273-.074.533-.166.731-.104-.154.092-.427.05-.687h-.02l-.184.644c-.061 0-.042-.087.019-.248l.018-.365-.03.019c-.05.198-.105.34-.179.47l.031-.476-.135.34.012-.279-.141.062a.525.525 0 0 1 .289-.247 4.77 4.77 0 0 0 1.032-.248Zm.16-.31c-.013.106-.093.174-.093.106-.012-.093 0-.198-.073-.322-.043-.056.03-.075.073-.031a.277.277 0 0 1 .093.247Zm.036.91c0 .044-.012.075-.018.075-.012 0-.018-.031-.018-.075 0-.043.012-.074.018-.074.012.006.018.037.018.075Zm.031-.222c.019 0 .03.012.03.043 0 .019-.011.043-.03.043-.018 0-.043-.018-.043-.043.006-.037.025-.043.043-.043Zm-.006-.638c.03 0 .05.043.061.093.013.05.013.105-.018.105-.012.012-.043-.03-.05-.08-.018-.056-.005-.106.007-.118Zm-.012.365c.012-.111.135-.08.08.031l-.062.143h-.03l.012-.174Zm-.756-.415c.08-.03.117-.08.092-.154l-.043-.688c-.03-.136.062-.08.092-.012.074 0 .08.056.019.124.172.018.227.074.135.148l-.148.031.185.019c.08.03.061.093.012.105l-.178.031.215.031c.104 0 .104.031-.018.093l-.093.062.154.018c.074-.012.092.02.061.106.05.247 0 .408-.202.408l-.688.155c-.043-.03-.062-.03-.043-.043 0-.013-.013-.019-.013-.019 0-.018.019-.043.043-.043.013 0 .031.012.031.03.043-.011.074-.011.104-.018v-.21l-.092.018v.031c0 .044-.018.075-.043.075-.024 0-.043-.031-.043-.075v-.012l-.043.012c-.092-.03-.092-.074-.012-.123l.516-.1ZM14.694 16l.013-.155c.012-.105.092-.025.092.043l-.03.167c-.031.031-.044.007-.075-.055Zm.043.117c.031 0 .05.019.05.05 0 .03-.019.055-.05.055-.018 0-.043-.018-.043-.055 0-.031.025-.05.043-.05Zm-1.56-2.433c.092-.08.209-.142.301-.186-.074.075-.141.155-.227.23l.074.043a.829.829 0 0 1 .307-.149l-.148.124c.074-.019.154-.019.258-.031-.135.062-.215.087-.32.124l.08.05a.623.623 0 0 1 .308-.094c-.074.044-.154.093-.24.137l.074.043a.53.53 0 0 1 .301-.062 1.276 1.276 0 0 0-.227.105l.043.031a.64.64 0 0 1 .276-.062c-.08.031-.141.075-.215.106l.062.03c.08-.03.165-.03.24-.018-.062.019-.124.031-.185.062l.215.136-.043.019-.332-.112c-.018 0-.03.013-.043.019 0-.012.012-.019.019-.031l-.08-.019c-.043.019-.092.05-.148.075.031-.044.05-.075.08-.093l-.08-.031c-.043.018-.092.05-.147.074a.6.6 0 0 1 .08-.105l-.08-.031c-.062.043-.11.08-.172.111a.729.729 0 0 1 .104-.136l-.104-.05-.154.137a.415.415 0 0 1 .08-.155l-.104-.043a1.4 1.4 0 0 1-.172.155c.03-.062.061-.124.104-.18l-.166-.062a1.12 1.12 0 0 1-.196.18c.03-.075.061-.149.104-.21l-.018-.013c.018-.124.116-.217.24-.279l.018.012a.563.563 0 0 1 .153-.105c-.03.05-.049.105-.08.143l.031.018a.646.646 0 0 1 .27-.167c-.061.08-.123.142-.196.21l.055.05Zm-1.738-1.09c-.013 0 .03-.086.092-.167.073-.093.123-.167.147-.148.012 0-.03.08-.104.167-.068.093-.13.155-.135.148Zm-.043.037-.148.415c.123-.241.227-.377.32-.365l-.185.365c-.012.044.013.062.062.05.123-.335.24-.52.32-.533l-.167.502c.074-.155.123-.217.154-.186l-.043.155c.08-.167.141-.242.184-.21l-.018.142a.333.333 0 0 1 .123-.136l.049.111a.376.376 0 0 1 .135-.217l.043.106c.061-.112.147-.217.276-.322l-.061.21.246-.124c.123-.043.147-.012.049.106l-.504.241c-.4.23-.805.365-1.216.242-.105-.044-.123-.093-.074-.186a.384.384 0 0 1 .172-.149v.136l.283-.353Zm-.504 8.736h-.03l-.05.124-.117.205.074-.23.03-.11a.883.883 0 0 0-.134-.044l-.093.093-.153.18.123-.211.049-.087c-.019 0-.043-.012-.062-.012l-.092.092-.153.18.122-.198.05-.08h-.08l-.062.092-.147.186.104-.217.031-.05c-.043.013-.086.02-.117.032l-.073.18.03-.168c-.092.043-.178.093-.209.198 0-.18.136-.278.394-.31.307-.043.663.02.565.155Zm-1.032 1.9c-.043-.062-.062-.111-.043-.124.018-.012.061.019.104.087.043.068.05.111.043.124-.024.006-.067-.025-.104-.087Zm-.025.242c-.012.012-.043-.031-.074-.075-.018-.05-.03-.105-.012-.111.012 0 .043.03.074.08.024.05.037.106.012.106Zm-.104.235c-.019 0-.062-.062-.08-.136-.03-.08-.03-.155-.012-.167.018-.013.073.05.092.136.037.086.037.16 0 .167Zm-.123-2.235c0 .012-.019.03-.062.043 0 .05.013.112.013.174l-.074-.155h-.043c0 .08 0 .167.012.247l-.104-.229c-.019.013-.03.013-.05.013.013.111.013.241.013.365l-.147-.297v-.019c-.019.062-.031.137-.05.198l-.03-.21c-.031.087-.074.186-.105.29l-.012-.216v-.068h.018l.258-.167c.179-.08.394-.112.363.03Zm-.264 1.752c-.154-.062-.142-.198.043-.322.16.068.16.223-.043.322Zm.577-.223c.03.043.043.08.03.093-.011 0-.042-.018-.073-.062-.018-.043-.043-.08-.018-.093.006 0 .037.025.061.062Zm.854-4.916.018-.186c.013-.043.093-.061.093-.012l-.019.186c0 .03-.092.056-.092.012Zm-.104.05c0-.031.018-.05.03-.05.019 0 .043.019.043.05 0 .03-.018.05-.043.05-.006.005-.03-.02-.03-.05Zm-.142.024c0-.049.08-.092.092-.012l.019.143c.012.043-.092.086-.092.012l-.019-.142Zm-.165.174c0-.031.018-.062.049-.062.03 0 .049.03.049.062 0 .043-.019.062-.05.062-.03 0-.049-.019-.049-.062Zm-.123.148.012-.136c0-.05.05-.074.061 0v.136c-.006.038-.086.075-.073 0Zm-.166.093v-.123c0-.05.08-.05.08.012l.012.124c0 .037-.092.05-.092-.013Zm-1.794 2.86c-.061-.154-.24-.197-.535-.142-.08-.093-.215-.154-.393-.198.166-.625.547-.947 1.18-1.052.608-.106 1.278-.446 2.009-.793.307-.229.35-.124.123.322l-.35.409c-.185.21-.228.427.03.631.35.174.498.34.442.49-.38-.106-.73-.05-1.032.228-.215-.061-.473-.03-.835.143-.184-.1-.393-.111-.64-.037Zm.577.174c-.012.062-.14.174-.288.279l.086-.186c.018-.031.043-.043.061-.062h-.074a.919.919 0 0 1-.208.18l.061-.155c.012-.013.03-.019.043-.031-.018 0-.043-.013-.05-.013a.54.54 0 0 1-.153.124l.043-.105c.074-.093.123-.087.24-.124.049-.03.27.019.24.093Zm-.135.873-.166-.142.05.278-.123-.136-.031.248c-.043-.105-.092-.198 0-.434.08-.216.184-.278.246-.272.073.087-.019.254.024.458Zm-.209 1.053c-.049-.013-.104-.031-.092-.044 0-.018.05-.03.105-.018.061.012.104.03.104.05-.012.012-.061.024-.117.012Zm-.172-.18c0-.018.062-.03.136-.018.073.012.122.043.122.061 0 .019-.061.031-.135.019-.073-.019-.123-.037-.123-.062Zm-.061-.16c0-.02.074-.032.166-.02.086.02.147.05.147.075-.012.03-.08.043-.166.018-.086-.012-.16-.043-.147-.074Zm-.178-1.697c-.012.062-.135.18-.289.26l.092-.18c.019-.018.043-.043.074-.062h-.062a1.18 1.18 0 0 1-.215.174l.074-.143c.012-.018.03-.03.043-.043-.03-.012-.061-.012-.104-.019l.184-.074c.092 0 .172.03.215.08h-.012v.007Zm-.854.204.104-.217a.281.281 0 0 1 .228-.111c-.007.068-.148.216-.332.328Zm-.258 1.523c.24.198.196.279-.123.248-.104-.031-.166-.106-.166-.248l-.104-.44c.135-.05.166.013.209.168.11.105.184.185.184.272Zm.092.663c-.03.012-.074-.044-.08-.106 0-.062.019-.124.05-.124.042-.012.073.044.08.106.011.062-.007.111-.05.123Zm-.184.198a.252.252 0 0 1-.21-.093c-.104-.124-.122-.279-.042-.403.08-.111.178-.074.227.075H6.77c.123.061.196.136.196.216l-.153-.043c.116.08.166.155.166.217l-.123-.08.043.11Zm-.645-2.805.092-.05a.153.153 0 0 1 .11.013c-.006.025-.098.043-.202.037Zm.067-.297.228-.031c-.166.148-.332.247-.406.229.012-.068.08-.155.178-.198Zm.19-1.907c.08-.012.167 0 .21.05-.043.049-.197.061-.381.03l.172-.08Zm.038-.595.135-.03c.061 0 .123.03.147.074-.037.03-.16.006-.282-.044Zm.122.459c-.012.03-.104.043-.196.043l.086-.05c.037-.024.086-.018.11.007Zm-.227-.21.135-.106a.195.195 0 0 1 .185 0c-.031.056-.166.087-.32.105ZM8.38 14.42l.4-.075-.019.087-.38-.012Zm.27.186c-.454.507-.774 1.411-.7 2.971.043.731.166 1.183-.258 1.622-.393.41-.688.353-.755.824-.043.303-.111.594-.197.78-.301-.167-.332-.52-.104-1.071.608-1.133.473-2.111-.27-2.972.43-1.61 1.13-2.476 2.285-2.154ZM6.267 20.89h.178c-.135.093-.276.154-.332.136.013-.068.074-.118.154-.136Zm-.32-.21.093-.106c.049-.031.11-.043.153-.019-.006.044-.123.093-.245.124Zm.074-.28a.223.223 0 0 1 .215-.012c-.03.062-.184.112-.362.136l.147-.123Zm-.03-.154c.073-.043.165-.05.227-.012-.019.049-.197.11-.381.142l.154-.13Zm-.031-.18c.074-.05.153-.062.215-.03-.019.061-.166.136-.35.179l.135-.149Zm.061-.29c.05-.032.117-.044.154-.02-.012.05-.123.106-.258.137l.104-.118Zm-1.302-.997a.506.506 0 0 1-.074-.26c.012-.124.105-.118.123-.031.025.154-.05.167-.05.29Zm16.593-5.17a.164.164 0 0 1 .227-.031c.061.03.086.074.086.105l-.123.043.154.044c.08.074.012.204-.062.093-.061-.062-.135-.075-.202-.031 0 .092-.025.111-.074.043-.068-.087-.08-.192-.006-.266Zm1.597 1.851c.061.093.074.279.05.501-.013.062-.08.08-.105 0a1.065 1.065 0 0 0-.135-.278c-.105-.124-.08-.198.049-.186-.117-.204.018-.248.141-.037Zm.184 1.182c.019.075.013.112-.043.124-.061.013-.116-.018-.166-.074-.073-.08-.092-.136-.08-.198l.05-.241c.012-.063.03-.05.061 0 .086.11.16.216.178.39Zm-.135.453c-.049 0-.092-.05-.141-.075l.08.112c.043.061-.043.092-.11.03l-.228-.179c-.062-.093-.043-.198.074-.334.03-.031.061-.044.092-.013l.172.112c.03.018.03.043.012.062-.05.055-.03.086.05.167.055.056.042.117 0 .117Zm-.897.57c.019-.02.074.018.105.073.043.062.049.124.03.137-.018.012-.073-.019-.104-.087-.037-.062-.05-.111-.03-.124Zm.21 1.04c0 .105-.032.197-.062.197-.043 0-.062-.093-.062-.198 0-.105.019-.198.062-.198.03 0 .061.093.061.198Zm.196.55c-.05.05-.166.05-.246.075l.08.136-.08.043-.03.111c-.154-.123-.247-.24-.197-.365l.104-.216c.05-.075.092-.075.123-.013l.246.23Zm-17.859-2.94c.277.092.363.414.142.736-.535.793-.455 1.635.03 2.712l.062-.031c.104-1.183.35-1.79.743-1.9a.698.698 0 0 0 .338-.26c.117-.18.172-.156.258.03.215.502.197.978-.104 1.455-.682 1.115-.713 1.963.258 2.644l.03.08-.258.335c-.086.136-.018.303.203.489.166.198.246.52.301.922-.08.124-.092.279-.043.458.147.205.498.322.989.273.05-.012.043-.05.043-.105.043-.23-.11-.397-.276-.675-.486-.44-.59-.855-.43-1.257l.073-.111c.381.136.866.29 1.309.352-.184.384-.166.861 0 1.146.307.538.639.792 1.271.736.836-.074 1.248-.767.94-1.715.301-.167.498-.154.596.031-.012.428.178.291.185.706-.498.434-.682.811-.148 1.053.277.278.123.384-.24.402-.38-.093-.657-.074-.712.242-.35.018-.455.229-.442.563.104-.248.3-.272.399-.21.184-.013.38.043.547-.031.153-.075.331-.075.528.012.104 0 .178.043.227.124.246.26.215-.031.762.303.135.013.362 0 .4.217l.049-.198c.043-.075.018-.155-.062-.23-.178-.21.105-.216.59-.123.258.111.497.167.682.136.215-.217.27-.08.307.21.153-.427.049-.656-.369-.674.074-.23.105.111.258-.167.136-.062.27 0 .406.136.03-.21-.092-.334-.363-.396-.061-.18-.196-.186-.38-.013-.787-.21-.867-.687-.425-.78.24-.062.332.186.517.26.147.05.215.031.411.05.215.012.412.05.547.148l.153.05c.08-.062.166-.05.27.043.111.167.228.186.332.056.308-.248.775-.248.744-.093-.012.23.03.316.11.291.074.012.105.105.105.272-.289-.024-.498.025-.498.248-.276.087-.27.279-.147.539-.03-.502.393-.093.805-.366l.288-.03c.031.142.166.21.424.198.092-.044.24-.044.332-.062.504-.137.91-.106 1.21.31a.377.377 0 0 0-.03-.385c.35-.241.73-.142.503.242.21-.105.412-.632.148-.626.116-.31.577-.049.442.18.197-.105.227-.26-.012-.458-.031-.174-.178-.23-.43-.155-.148-.248-.332-.26-.578-.043-.245.117-.442.124-.565-.044-.135-.216-.104-.322.086-.247.092.03.135-.08.246-.304.043-.092.123-.167.184-.29.27-.044.485-.28.762-.762.196-.093.288-.477.3-1.084.08.044.185.013.32-.074-.092-.012-.135-.043-.135-.279h.258c.105-.043.148-.08.135-.136 0-.043-.104-.03-.178-.142-.03-.149-.11-.291-.27-.44l-.246-.408c-.172-.564-.38-.886-.639-.675l-.073-.043c-.197-.217-.338-.508-.455-.83.012-.396-.4-.415-.62-.044l-.062-.315-.104.167-.652-.947c.074-.013.197-.08.27-.093.793-.062 1.592-.304 2.403-.762l.577-.18c.258-.105.344-.018.473.112l.59.613c.11.124.11.241.05.365-.062.124.079.291.288.47.184.211.209.49.043.843-.092.229-.074.378.061.446l.406.29c.27.217.399.143.393-.24a1.368 1.368 0 0 0-.197-.583c-.135-.241-.227-.47-.24-.706-.012-.476-.073-.73-.27-.891a3.313 3.313 0 0 1-.577-.737c-.05-.155-.092-.248-.178-.29-.019-.502-.381-.75-.608-.614a1.575 1.575 0 0 1-.59.031v-.111c.258-.143.7-.6 1.143-1.102.165-.21.245-.124.411.043l.639.675c-.018.334.03.55.258.532.154.273.227.533.08.644-.141.124-.258.21-.258.384.03.26.332.532.657.656.03.013.08-.012.105-.05.092-.228.104-.5.012-.767l-.11-.384c-.02-.155 0-.278.012-.396.03-.303.043-.47-.277-.7a7.793 7.793 0 0 1-1.02-1.287c.013-.595-.497-.75-.817-.106l-.62.44c-.154.105-.258-.062-.258-.23-.062-.78-.59-1.405-1.167-2.005-.314-.947-.731-1.74-.885-2.464.59.062 1.032.18 1.21.353.258.278.59.427.67.229.03-.062-.154-.18-.246-.273.104 0 .24.093.381.242.258 0 .338-.198.27-.47.031-.218.019-.385-.073-.46l-.215-.123a6.507 6.507 0 0 1-.904-1.22.252.252 0 0 1-.043-.136.593.593 0 0 0-.227-.489l.08-.043-.012-.062.184.043-.184-.31c-.105-.383-.455-.445-.983-.29-.074.018-.166-.062-.258-.168-.332-.321-.682-.501-.56-.26.02.044.124.155.013.143l-.565-.093c-.123-.019-.148.019-.117.087.105.111.203.216.246.34l-.713.043c-.147.013-.27.075-.405.062-.393-.334-.879-.086-1.382.304l-.074-.031-.012-.595h.061L14.11 6h.044c.043-.582-.074-.954-.289-1.22-.043-.18.135-.155.172-.21.166-.211.154-.446.154-.57-.031-.248-.117-.335-.24-.248h-.147a.594.594 0 0 1-.344-.142c-.166-.112-.32-.112-.473-.013-.744.186-.879.768-1.782.372-.104-.013-.123.03-.08.111.154.21.369.347.608.446-.08.062-.245.074-.516.05.154.21.455.31.922.303.172.105.38.062.608-.031.123-.074.135-.03.05.136-.24.198-.4.582-.43 1.276a1.204 1.204 0 0 0-.173.476c-.344-.093-.639-.154-.762-.05h-.129c-.3-.228-.59-.216-.823-.061l-.528.409c-.197.136-.363.142-.393-.019l-.215-.47c.012-.335-.117-.49-.338-.508a.556.556 0 0 1-.197-.335l-.153-.198c.049-.18-.019-.241-.148-.241-.135 0-.258-.019-.331-.074L7.1 3.857c-.135.019-.184.112-.165.273l.915 1.312c.03.062.092.124.086.18-.074.173-.105.29.05.446l.306.303c.031.217.074.396.142.458-.074.143.018.279.147.415.03.043.043.093.092.136l.05.446c-.437.365-.652.632-.689.799-.018.093-.043.167.019.216l.608-.061c.049.03.117.043.135.08a.451.451 0 0 1-.362.607c-.756.185-1.297.446-1.082.953.277.366.135.687-.344.978a.455.455 0 0 0-.141.415c-.135.112-.24.291-.332.49-.073.21-.073.303.074.278 1.05-.353 2.083-.502 2.814.111.362.304.3.459.866.49-.062.241 0 .371.203.414l.03.273c-.227.05-.485.05-.712.111-.258.062-.504.167-.731.167-.197-.154-.424-.247-.609-.365-.952-.594-1.744-.625-2.432.186-.363.427-.688 1.009-.959 1.9-.043.162-.166.223-.411.081-.498-.409-.59-.768-.338-1.01.35-.333.485-.135.3.044l.013.044c.27 0 .369.185.473.383.227-.594.105-.996-.215-1.318l-.074-.013.031.508c-.547-.111-.848.31-.884.706-.037.384.135.73.632 1.021Z"/><path d="M.375.378h26.459v25.706c0 2.836-1.831 4.526-4.903 4.526h-3.17c-2.1 0-3.784.631-5.141 1.92l-.013.005-.012-.006c-1.364-1.294-3.047-1.919-5.142-1.919H5.295c-3.077 0-4.92-1.69-4.92-4.526V.378ZM0 26.078c0 3.021 2.027 4.904 5.295 4.904H8.46c1.997 0 3.594.594 4.884 1.82l.264.254.264-.254c1.284-1.226 2.882-1.82 4.884-1.82h3.17c3.256 0 5.277-1.877 5.277-4.904V0H0v26.078Z"/></symbol><symbol viewBox="0 0 237 22" id="logo-mobile" xmlns="http://www.w3.org/2000/svg"><g clip-path="url(#ga)"><path d="M7.773 4.4v2.267H5.13v11.895H2.643V6.667H0V4.4h7.773Zm5.081 0c2.704 0 4.164 1.34 4.164 3.645 0 1.379-.787 2.476-1.892 2.852v.265c1.264.397 2.051 1.55 2.051 3.284 0 2.607-1.46 4.116-4.42 4.116H9.168V4.4h3.687Zm-1.223 5.76h1.362c1.105 0 1.656-.566 1.656-1.644v-.34c0-1.038-.571-1.549-1.656-1.549h-1.362v3.533Zm0 6.176h1.301c1.223 0 1.835-.642 1.835-1.775v-.586c0-1.208-.57-2.02-1.835-2.02h-1.3v4.38ZM25.99 4.155c4.221 0 7.655 3.098 7.655 7.328 0 4.04-3.234 7.328-7.655 7.328-4.22 0-7.654-3.097-7.654-7.328.004-4.044 3.238-7.328 7.655-7.328Zm0 12.387c3.096 0 5.167-2.286 5.167-5.063 0-2.966-2.267-5.062-5.166-5.062-3.096 0-5.167 2.286-5.167 5.062 0 2.967 2.267 5.063 5.166 5.063ZM37.828 4.4v1.304l-.237 2.852h.314l3.927-4.155h1.4v14.16h-2.489V15.75l.314-7.458h-.314l-2.96 2.907v7.364h-2.447V4.4h2.492Zm.868-2.625h-.138c-.453 0-.673.15-.673.435 0 .282.236.436.673.436h1.46c.432 0 .668-.15.668-.436 0-.285-.216-.435-.668-.435h-.135V0h.334c1.28 0 2.329.681 2.329 1.814 0 1.284-1.064 1.965-3.254 1.965s-3.255-.681-3.255-1.965C36.037.681 37.081 0 38.366 0h.334v1.775h-.004ZM56.118 4.4v2.267h-3.789v11.895h-2.483V4.4h6.272Zm7.929-.245c4.22 0 7.655 3.098 7.655 7.328 0 4.04-3.234 7.328-7.655 7.328-4.22 0-7.654-3.097-7.654-7.328 0-4.044 3.238-7.328 7.654-7.328Zm0 12.387c3.095 0 5.167-2.286 5.167-5.063 0-2.966-2.267-5.062-5.167-5.062-3.095 0-5.167 2.286-5.167 5.062 0 2.967 2.268 5.063 5.167 5.063ZM76.87 4.4c2.705 0 4.421 1.74 4.421 5.043 0 3.039-1.696 4.853-4.42 4.853h-.967v4.266H73.4V4.4h3.47Zm-.966 8.006h.946c1.204 0 1.974-.962 1.974-2.606v-.773c0-1.584-.77-2.36-1.974-2.36h-.946v5.74ZM90.02 4.155c4.22 0 7.654 3.098 7.654 7.328 0 4.04-3.234 7.328-7.654 7.328-4.221 0-7.655-3.097-7.655-7.328 0-4.044 3.234-7.328 7.655-7.328Zm0 12.387c3.095 0 5.167-2.286 5.167-5.063 0-2.966-2.268-5.062-5.167-5.062-3.096 0-5.167 2.286-5.167 5.062-.004 2.967 2.267 5.063 5.167 5.063ZM106.384 4.4v11.896h1.835v.887L106.445 22h-.807v-3.438h-7.439v-.436l2.149-11.558V4.397h6.036v.004Zm-4.164 2.267-1.203 9.63h2.879v-9.63h-1.676ZM151.007 4.4v2.267h-2.642v11.895h-2.488V6.667h-2.643V4.4h7.773Zm5.082 0c2.704 0 4.164 1.34 4.164 3.645 0 1.379-.787 2.476-1.893 2.852v.265c1.265.397 2.052 1.55 2.052 3.284 0 2.607-1.46 4.116-4.421 4.116h-3.589V4.4h3.687Zm-1.223 5.76h1.362c1.105 0 1.655-.566 1.655-1.644v-.34c0-1.038-.571-1.549-1.655-1.549h-1.362v3.533Zm0 6.176h1.3c1.224 0 1.836-.642 1.836-1.775v-.586c0-1.208-.571-2.02-1.836-2.02h-1.3v4.38Zm14.359-12.181c4.221 0 7.654 3.098 7.654 7.328 0 4.04-3.234 7.328-7.654 7.328-4.221 0-7.655-3.097-7.655-7.328.004-4.044 3.238-7.328 7.655-7.328Zm0 12.387c3.095 0 5.167-2.286 5.167-5.063 0-2.966-2.268-5.062-5.167-5.062-3.095 0-5.167 2.286-5.167 5.062 0 2.967 2.267 5.063 5.167 5.063Zm14.638-5.384h-2.801v5.138h4.636v2.266h-7.12V4.4h6.725v2.266h-4.241v3.038l2.487-.622.314 2.075ZM178.872.812h2.369v2.266h-2.369V.812Zm3.947 0h2.37v2.266h-2.37V.812ZM198.993 4.4v11.896h1.835v.887L199.054 22h-.807v-3.438h-7.438v-.436l2.149-11.558V4.397h6.035v.004Zm-4.159 2.267-1.203 9.63h2.879v-9.63h-1.676Zm12.41 4.492h-2.801v5.137h4.636v2.266h-7.12V4.4h6.725v2.266h-4.241v3.038l2.487-.622.314 2.075ZM219.51 4.4v14.162h-2.487V6.667h-2.17l-.196 6.38c-.138 4.627-1.182 5.63-2.76 5.63-.73 0-1.363-.246-1.856-.793v-2.55h.591c0 .606.237.962.73.962.592 0 .889-.471 1.008-1.72l.791-7.93V4.402h6.349Zm9.336-.245c4.221 0 7.654 3.098 7.654 7.328 0 4.04-3.233 7.328-7.654 7.328-4.221 0-7.655-3.097-7.655-7.328 0-4.044 3.234-7.328 7.655-7.328Zm0 12.387c3.095 0 5.167-2.286 5.167-5.063 0-2.966-2.268-5.062-5.167-5.062-3.095 0-5.167 2.286-5.167 5.062-.004 2.967 2.267 5.063 5.167 5.063Zm-90.714-6.203h-26.177v2.27h26.177v-2.27Z"/></g><defs><clipPath id="ga"><path d="M0 0h236.5v22H0z"/></clipPath></defs></symbol><symbol viewBox="0 0 42 42" id="student" xmlns="http://www.w3.org/2000/svg"><path d="m37.372 8.633-15.75-5.25a1.944 1.944 0 0 0-1.244 0l-15.75 5.25a1.969 1.969 0 0 0-1.347 1.764.994.994 0 0 0 0 .103v13.125a1.969 1.969 0 1 0 3.938 0V13.232l3.89 1.296a11.143 11.143 0 0 0 3.022 13.945 16.464 16.464 0 0 0-6.584 5.888 1.969 1.969 0 1 0 3.297 2.151c2.342-3.603 6.054-5.668 10.156-5.668 4.101 0 7.814 2.065 10.164 5.668a1.968 1.968 0 1 0 3.297-2.15 16.465 16.465 0 0 0-6.592-5.894 11.143 11.143 0 0 0 3.022-13.945l6.48-2.16a1.968 1.968 0 0 0 0-3.735v.005ZM21 7.321l9.524 3.179L21 13.675 11.484 10.5 21 7.32Zm7.219 12.367a7.218 7.218 0 1 1-13.3-3.89l5.46 1.82c.402.135.84.135 1.243 0l5.458-1.82a7.193 7.193 0 0 1 1.139 3.89Z"/></symbol><symbol viewBox="0 0 16 16" id="telegram" xmlns="http://www.w3.org/2000/svg"><path d="m14.629 3.698-2.012 9.618c-.152.679-.548.848-1.11.528l-3.066-2.29-1.48 1.442c-.163.166-.3.305-.616.305l.22-3.165 5.683-5.204c.247-.223-.054-.347-.384-.123L4.839 9.29l-3.024-.959c-.658-.208-.67-.667.137-.986L13.78 2.727c.548-.208 1.027.124.849.971Z"/></symbol><symbol viewBox="0 0 16 16" id="viber" xmlns="http://www.w3.org/2000/svg"><path d="M8 1.335c-1.071.013-3.374.19-4.662 1.37-.958.948-1.292 2.35-1.331 4.084-.033 1.728-.072 4.973 3.058 5.856v1.346s-.02.538.337.648c.438.14.688-.275 1.105-.72l.778-.879c2.142.178 3.782-.232 3.97-.293.435-.139 2.883-.451 3.283-3.696.41-3.351-.2-5.463-1.301-6.418h-.007c-.332-.306-1.668-1.279-4.652-1.29 0 0-.222-.014-.578-.008Zm.037.942a7.02 7.02 0 0 1 .488.011c2.527.007 3.732.767 4.017 1.023.927.794 1.405 2.697 1.055 5.495-.332 2.713-2.317 2.885-2.685 3.002-.156.05-1.6.406-3.42.289 0 0-1.356 1.634-1.78 2.055-.067.074-.146.095-.196.085-.071-.018-.093-.107-.089-.229l.013-2.233c-2.655-.733-2.498-3.5-2.47-4.946.033-1.446.304-2.628 1.113-3.43 1.088-.982 3.043-1.115 3.953-1.122Zm.2 1.446a.166.166 0 1 0 0 .332 3.136 3.136 0 0 1 2.242.883c.606.588.9 1.378.912 2.411 0 .092.074.167.167.167V7.51a.167.167 0 0 0 .168-.165 3.588 3.588 0 0 0-1.009-2.646c-.66-.645-1.496-.977-2.48-.977Zm-2.198.382a.523.523 0 0 0-.342.067H5.69a2.61 2.61 0 0 0-.637.523 1.003 1.003 0 0 0-.256.525.71.71 0 0 0 .026.302l.01.006c.172.504.396.988.67 1.444a8.48 8.48 0 0 0 1.29 1.762l.015.022.024.017.015.018.017.015c.532.505 1.127.94 1.769 1.295.734.4 1.18.588 1.447.667v.004c.078.024.15.034.221.034.228-.016.444-.109.613-.262a2.53 2.53 0 0 0 .517-.638v-.004c.128-.241.085-.469-.1-.623-.37-.323-.77-.61-1.195-.857-.285-.155-.574-.061-.69.095l-.25.315c-.129.156-.361.134-.361.134l-.007.004C7.093 8.527 6.63 6.772 6.63 6.772s-.022-.239.139-.36l.312-.252c.15-.122.254-.41.094-.695a7.498 7.498 0 0 0-.856-1.194.475.475 0 0 0-.28-.167Zm2.486.495c-.221 0-.221.334.003.334A2.098 2.098 0 0 1 10 5.572 1.94 1.94 0 0 1 10.5 7a.168.168 0 0 0 .167.165l.007.009a.169.169 0 0 0 .167-.167c.015-.662-.191-1.218-.595-1.663C9.84 4.9 9.273 4.65 8.549 4.6h-.024Zm.274.898c-.228-.006-.236.335-.01.341.55.029.816.306.851.877a.166.166 0 0 0 .165.163h.007a.168.168 0 0 0 .16-.178c-.039-.744-.445-1.164-1.166-1.202H8.8Z"/></symbol><symbol viewBox="0 0 24 24" id="vk" xmlns="http://www.w3.org/2000/svg"><path d="M21.579 6.855c.14-.465 0-.806-.662-.806h-2.193c-.558 0-.813.295-.953.619 0 0-1.115 2.719-2.695 4.482-.51.513-.743.675-1.021.675-.139 0-.341-.162-.341-.627V6.855c0-.558-.161-.806-.626-.806H9.642c-.348 0-.558.258-.558.504 0 .528.79.65.871 2.138v3.228c0 .707-.127.836-.407.836-.743 0-2.551-2.73-3.624-5.853-.209-.607-.42-.852-.98-.852H2.752c-.627 0-.752.295-.752.619 0 .582.743 3.462 3.461 7.27 1.812 2.602 4.363 4.012 6.687 4.012 1.393 0 1.565-.313 1.565-.853v-1.966c0-.626.133-.752.574-.752.324 0 .882.164 2.183 1.417 1.486 1.486 1.732 2.153 2.567 2.153h2.192c.626 0 .939-.313.759-.931-.197-.615-.907-1.51-1.849-2.57-.512-.603-1.277-1.253-1.51-1.578-.325-.42-.231-.604 0-.976.001 0 2.672-3.761 2.95-5.04Z"/></symbol><symbol viewBox="0 0 16 16" id="whatsapp" xmlns="http://www.w3.org/2000/svg"><path fill-rule="evenodd" clip-rule="evenodd" d="M12.269 3.755A5.947 5.947 0 0 0 8.035 2 5.994 5.994 0 0 0 2.05 7.985a5.98 5.98 0 0 0 .799 2.992L2 14.077l3.173-.832c.877.477 1.86.728 2.86.728h.002a5.993 5.993 0 0 0 5.533-8.276 5.953 5.953 0 0 0-1.3-1.942Zm-4.234 9.208h-.002c-.89 0-1.765-.24-2.532-.694l-.181-.108-1.883.494.502-1.835-.118-.188a4.965 4.965 0 0 1-.76-2.647 4.982 4.982 0 0 1 6.88-4.597c.604.25 1.152.618 1.613 1.081a4.946 4.946 0 0 1 1.455 3.52 4.982 4.982 0 0 1-4.974 4.974Zm2.729-3.726c-.15-.075-.885-.436-1.022-.486-.137-.05-.236-.075-.336.074-.1.15-.387.486-.474.586-.087.1-.175.112-.324.038-.15-.075-.631-.233-1.203-.742a4.505 4.505 0 0 1-.832-1.036c-.087-.15-.009-.231.066-.306.068-.066.15-.174.224-.262.075-.087.1-.149.15-.249.05-.1.025-.187-.013-.262-.037-.075-.337-.811-.461-1.11-.121-.29-.244-.252-.336-.256a6.418 6.418 0 0 0-.286-.005.55.55 0 0 0-.4.186c-.137.15-.523.512-.523 1.248s.536 1.447.61 1.547c.075.1 1.055 1.61 2.555 2.258.358.154.636.246.853.315.358.114.684.098.942.06.287-.043.885-.362 1.01-.711.124-.35.124-.649.087-.711-.038-.063-.138-.101-.287-.176Z"/></symbol></svg>