<svg width="237" height="22" viewBox="0 0 237 22" fill="none" xmlns="http://www.w3.org/2000/svg">
<g id="tvoy_gorod_g 1" clip-path="url(#clip0_0_727)">
<g id="Group">
<g id="Group_2">
<g id="Group_3">
<path id="Vector" d="M7.77282 4.40076V6.66651H5.13022V18.5617H2.64259V6.66651H0V4.40076H7.77282Z" fill="#2C1551"/>
<path id="Vector_2" d="M12.8545 4.40088C15.5583 4.40088 17.0183 5.73973 17.0183 8.0451C17.0183 9.42356 16.2312 10.5208 15.126 10.8971V11.1625C16.3902 11.5586 17.1773 12.7113 17.1773 14.4463C17.1773 17.0527 15.7174 18.5618 12.7567 18.5618H9.16797V4.40088H12.8545ZM11.6311 10.1603H12.9932C14.0984 10.1603 14.6489 9.59389 14.6489 8.51647V8.17582C14.6489 7.13801 14.078 6.62702 12.9932 6.62702H11.6311V10.1603ZM11.6311 16.3357H12.932C14.1555 16.3357 14.7672 15.694 14.7672 14.5611V13.9749C14.7672 12.7667 14.1962 11.9547 12.932 11.9547H11.6311V16.3357Z" fill="#2C1551"/>
<path id="Vector_3" d="M25.9905 4.15527C30.2113 4.15527 33.645 7.25286 33.645 11.4833C33.645 15.5237 30.4111 18.8114 25.9905 18.8114C21.7697 18.8114 18.3359 15.7138 18.3359 11.4833C18.34 7.43903 21.5739 4.15527 25.9905 4.15527ZM25.9905 16.5417C29.0858 16.5417 31.1574 14.2561 31.1574 11.4794C31.1574 8.5125 28.89 6.41707 25.9905 6.41707C22.8952 6.41707 20.8236 8.70263 20.8236 11.4794C20.8236 14.4462 23.091 16.5417 25.9905 16.5417Z" fill="#2C1551"/>
<path id="Vector_4" d="M37.8276 4.40079V5.704L37.5911 8.55599H37.9051L41.8323 4.40079H43.2311V18.5618H40.7435V15.7494L41.0575 8.2906H40.7435L37.7828 11.1981V18.5618H35.3359V4.40079H37.8276ZM38.6963 1.77458H38.5576C38.105 1.77458 37.8847 1.9251 37.8847 2.2103C37.8847 2.49154 38.1213 2.64602 38.5576 2.64602H40.0176C40.4498 2.64602 40.6864 2.4955 40.6864 2.2103C40.6864 1.9251 40.4702 1.77458 40.0176 1.77458H39.883V0H40.2174C41.4979 0 42.546 0.681311 42.546 1.81419C42.546 3.09759 41.4816 3.7789 39.2917 3.7789C37.1017 3.7789 36.0374 3.09759 36.0374 1.81419C36.0374 0.681311 37.0814 0 38.366 0H38.7004V1.77458H38.6963Z" fill="#2C1551"/>
<path id="Vector_5" d="M56.1197 4.40088V6.66663H52.3312V18.5618H49.8477V4.40088H56.1197Z" fill="#2C1551"/>
<path id="Vector_6" d="M64.0452 4.15527C68.266 4.15527 71.6997 7.25286 71.6997 11.4833C71.6997 15.5237 68.4658 18.8114 64.0452 18.8114C59.8244 18.8114 56.3906 15.7138 56.3906 11.4833C56.3906 7.43903 59.6286 4.15527 64.0452 4.15527ZM64.0452 16.5417C67.1404 16.5417 69.2121 14.2561 69.2121 11.4794C69.2121 8.5125 66.9447 6.41707 64.0452 6.41707C60.9499 6.41707 58.8783 8.70263 58.8783 11.4794C58.8783 14.4462 61.1457 16.5417 64.0452 16.5417Z" fill="#2C1551"/>
<path id="Vector_7" d="M76.8728 4.40088C79.5766 4.40088 81.2934 6.13981 81.2934 9.44337C81.2934 12.4815 79.5969 14.2957 76.8728 14.2957H75.9063V18.5618H73.4023V4.40088H76.8728ZM75.9063 12.4063H76.8524C78.0554 12.4063 78.8262 11.4437 78.8262 9.79987V9.02745C78.8262 7.44301 78.0554 6.66663 76.8524 6.66663H75.9063V12.4063Z" fill="#2C1551"/>
<path id="Vector_8" d="M90.0178 4.15527C94.2387 4.15527 97.6724 7.25286 97.6724 11.4833C97.6724 15.5237 94.4385 18.8114 90.0178 18.8114C85.797 18.8114 82.3633 15.7138 82.3633 11.4833C82.3633 7.43903 85.5972 4.15527 90.0178 4.15527ZM90.0178 16.5417C93.1131 16.5417 95.1848 14.2561 95.1848 11.4794C95.1848 8.5125 92.9174 6.41707 90.0178 6.41707C86.9226 6.41707 84.8509 8.70263 84.8509 11.4794C84.8468 14.4462 87.1183 16.5417 90.0178 16.5417Z" fill="#2C1551"/>
<path id="Vector_9" d="M106.384 4.40093V16.2961H108.219V17.1834L106.445 22.0001H105.638V18.5619H98.1992V18.1262L100.348 6.56766V4.39697H106.384V4.40093ZM102.22 6.66669L101.017 16.2961H103.896V6.66669H102.22Z" fill="#2C1551"/>
<path id="Vector_10" d="M151.007 4.40076V6.66651H148.365V18.5617H145.877V6.66651H143.234V4.40076H151.007Z" fill="#2C1551"/>
<path id="Vector_11" d="M156.089 4.40088C158.793 4.40088 160.253 5.73973 160.253 8.0451C160.253 9.42356 159.466 10.5208 158.36 10.8971V11.1625C159.625 11.5586 160.412 12.7113 160.412 14.4463C160.412 17.0527 158.952 18.5618 155.991 18.5618H152.402V4.40088H156.089ZM154.866 10.1603H156.228C157.333 10.1603 157.883 9.59389 157.883 8.51647V8.17582C157.883 7.13801 157.312 6.62702 156.228 6.62702H154.866V10.1603ZM154.866 16.3357H156.166C157.39 16.3357 158.002 15.694 158.002 14.5611V13.9749C158.002 12.7667 157.431 11.9547 156.166 11.9547H154.866V16.3357Z" fill="#2C1551"/>
<path id="Vector_12" d="M169.225 4.15527C173.446 4.15527 176.879 7.25286 176.879 11.4833C176.879 15.5237 173.645 18.8114 169.225 18.8114C165.004 18.8114 161.57 15.7138 161.57 11.4833C161.574 7.43903 164.808 4.15527 169.225 4.15527ZM169.225 16.5417C172.32 16.5417 174.392 14.2561 174.392 11.4794C174.392 8.5125 172.124 6.41707 169.225 6.41707C166.13 6.41707 164.058 8.70263 164.058 11.4794C164.058 14.4462 166.325 16.5417 169.225 16.5417Z" fill="#2C1551"/>
<path id="Vector_13" d="M183.863 11.1584H181.062V16.296H185.698V18.5617H178.578V4.40078H185.303V6.66653H181.062V9.7047L183.549 9.08281L183.863 11.1584ZM178.872 0.812012H181.241V3.07777H178.872V0.812012ZM182.819 0.812012H185.189V3.07777H182.819V0.812012Z" fill="#2C1551"/>
<path id="Vector_14" d="M198.993 4.40093V16.2961H200.828V17.1834L199.054 22.0001H198.247V18.5619H190.809V18.1262L192.958 6.56766V4.39697H198.993V4.40093ZM194.834 6.66669L193.631 16.2961H196.51V6.66669H194.834Z" fill="#2C1551"/>
<path id="Vector_15" d="M207.242 11.1585H204.441V16.2961H209.077V18.5618H201.957V4.40088H208.682V6.66663H204.441V9.7048L206.928 9.08291L207.242 11.1585Z" fill="#2C1551"/>
<path id="Vector_16" d="M219.512 4.40088V18.5618H217.025V6.66663H214.855L214.659 13.048C214.521 17.6746 213.477 18.6767 211.898 18.6767C211.169 18.6767 210.536 18.4311 210.043 17.8845V15.3335H210.634C210.634 15.9396 210.871 16.2961 211.364 16.2961C211.956 16.2961 212.253 15.8247 212.372 14.577L213.163 6.64683V4.40088H219.512Z" fill="#2C1551"/>
<path id="Vector_17" d="M228.846 4.15527C233.067 4.15527 236.5 7.25286 236.5 11.4833C236.5 15.5237 233.267 18.8114 228.846 18.8114C224.625 18.8114 221.191 15.7138 221.191 11.4833C221.191 7.43903 224.425 4.15527 228.846 4.15527ZM228.846 16.5417C231.941 16.5417 234.013 14.2561 234.013 11.4794C234.013 8.5125 231.745 6.41707 228.846 6.41707C225.751 6.41707 223.679 8.70263 223.679 11.4794C223.675 14.4462 225.946 16.5417 228.846 16.5417Z" fill="#2C1551"/>
</g>
</g>
<g id="Group_4">
<path id="Vector_18" d="M138.13 10.3384H111.953V12.6081H138.13V10.3384Z" fill="#2C1551"/>
</g>
</g>
</g>
<defs>
<clipPath id="clip0_0_727">
<rect width="236.5" height="22" fill="white"/>
</clipPath>
</defs>
</svg>
