<svg width="42" height="42" viewBox="0 0 42 42" fill="none" xmlns="http://www.w3.org/2000/svg">
<path d="M34.125 4.59375H30.8438V3.9375C30.8438 3.41536 30.6363 2.9146 30.2671 2.54538C29.8979 2.17617 29.3971 1.96875 28.875 1.96875C28.3529 1.96875 27.8521 2.17617 27.4829 2.54538C27.1137 2.9146 26.9062 3.41536 26.9062 3.9375V4.59375H15.0938V3.9375C15.0938 3.41536 14.8863 2.9146 14.5171 2.54538C14.1479 2.17617 13.6471 1.96875 13.125 1.96875C12.6029 1.96875 12.1021 2.17617 11.7329 2.54538C11.3637 2.9146 11.1562 3.41536 11.1562 3.9375V4.59375H7.875C7.00476 4.59375 6.17016 4.93945 5.55481 5.55481C4.93945 6.17016 4.59375 7.00476 4.59375 7.875V34.125C4.59375 34.9952 4.93945 35.8298 5.55481 36.4452C6.17016 37.0605 7.00476 37.4062 7.875 37.4062H34.125C34.9952 37.4062 35.8298 37.0605 36.4452 36.4452C37.0605 35.8298 37.4062 34.9952 37.4062 34.125V7.875C37.4062 7.00476 37.0605 6.17016 36.4452 5.55481C35.8298 4.93945 34.9952 4.59375 34.125 4.59375ZM11.1562 8.53125C11.1562 9.05339 11.3637 9.55415 11.7329 9.92337C12.1021 10.2926 12.6029 10.5 13.125 10.5C13.6471 10.5 14.1479 10.2926 14.5171 9.92337C14.8863 9.55415 15.0938 9.05339 15.0938 8.53125H26.9062C26.9062 9.05339 27.1137 9.55415 27.4829 9.92337C27.8521 10.2926 28.3529 10.5 28.875 10.5C29.3971 10.5 29.8979 10.2926 30.2671 9.92337C30.6363 9.55415 30.8438 9.05339 30.8438 8.53125H33.4688V12.4688H8.53125V8.53125H11.1562ZM8.53125 33.4688V16.4062H33.4688V33.4688H8.53125Z" fill="#FFBE55"/>
</svg>
