<svg width="42" height="42" viewBox="0 0 42 42" fill="none" xmlns="http://www.w3.org/2000/svg">
<path d="M16.4062 16.4062C16.4062 15.8841 16.6137 15.3833 16.9829 15.0141C17.3521 14.6449 17.8529 14.4375 18.375 14.4375H23.625C24.1471 14.4375 24.6479 14.6449 25.0171 15.0141C25.3863 15.3833 25.5938 15.8841 25.5938 16.4062C25.5938 16.9284 25.3863 17.4292 25.0171 17.7984C24.6479 18.1676 24.1471 18.375 23.625 18.375H18.375C17.8529 18.375 17.3521 18.1676 16.9829 17.7984C16.6137 17.4292 16.4062 16.9284 16.4062 16.4062ZM38.7188 11.1562V32.1562C38.7188 33.0265 38.373 33.8611 37.7577 34.4764C37.1423 35.0918 36.3077 35.4375 35.4375 35.4375H6.5625C5.69226 35.4375 4.85766 35.0918 4.24231 34.4764C3.62695 33.8611 3.28125 33.0265 3.28125 32.1562V11.1562C3.28125 10.286 3.62695 9.45141 4.24231 8.83606C4.85766 8.2207 5.69226 7.875 6.5625 7.875H12.4688V6.5625C12.4688 5.34416 12.9527 4.17572 13.8142 3.31423C14.6757 2.45273 15.8442 1.96875 17.0625 1.96875H24.9375C26.1558 1.96875 27.3243 2.45273 28.1858 3.31423C29.0473 4.17572 29.5312 5.34416 29.5312 6.5625V7.875H35.4375C36.3077 7.875 37.1423 8.2207 37.7577 8.83606C38.373 9.45141 38.7188 10.286 38.7188 11.1562ZM16.4062 7.875H25.5938V6.5625C25.5938 6.38845 25.5246 6.22153 25.4015 6.09846C25.2785 5.97539 25.1115 5.90625 24.9375 5.90625H17.0625C16.8885 5.90625 16.7215 5.97539 16.5985 6.09846C16.4754 6.22153 16.4062 6.38845 16.4062 6.5625V7.875ZM7.21875 11.8125V17.5924C11.4672 19.8316 16.1976 21.0012 21 21C25.8026 21.0011 30.5331 19.8309 34.7812 17.5908V11.8125H7.21875ZM34.7812 31.5V21.9745C30.4495 23.928 25.7519 24.938 21 24.9375C16.2481 24.9383 11.5504 23.9283 7.21875 21.9745V31.5H34.7812Z" fill="#FFBE55"/>
</svg>
