<svg width="237" height="22" viewBox="0 0 237 22" fill="none" xmlns="http://www.w3.org/2000/svg">
<g clip-path="url(#clip0_5_9154)">
<path d="M7.77282 4.40076V6.66651H5.13022V18.5617H2.64259V6.66651H0V4.40076H7.77282Z" fill="#2C1551"/>
<path d="M12.8545 4.40088C15.5583 4.40088 17.0183 5.73973 17.0183 8.0451C17.0183 9.42356 16.2312 10.5208 15.126 10.8971V11.1625C16.3902 11.5586 17.1773 12.7113 17.1773 14.4463C17.1773 17.0527 15.7174 18.5618 12.7567 18.5618H9.16797V4.40088H12.8545ZM11.6311 10.1603H12.9932C14.0984 10.1603 14.6489 9.59389 14.6489 8.51647V8.17582C14.6489 7.13801 14.078 6.62702 12.9932 6.62702H11.6311V10.1603ZM11.6311 16.3357H12.932C14.1555 16.3357 14.7672 15.694 14.7672 14.5611V13.9749C14.7672 12.7667 14.1962 11.9547 12.932 11.9547H11.6311V16.3357Z" fill="#2C1551"/>
<path d="M25.9905 4.15527C30.2113 4.15527 33.645 7.25286 33.645 11.4833C33.645 15.5237 30.4111 18.8114 25.9905 18.8114C21.7697 18.8114 18.3359 15.7138 18.3359 11.4833C18.34 7.43903 21.5739 4.15527 25.9905 4.15527ZM25.9905 16.5417C29.0858 16.5417 31.1574 14.2561 31.1574 11.4794C31.1574 8.5125 28.89 6.41707 25.9905 6.41707C22.8952 6.41707 20.8236 8.70263 20.8236 11.4794C20.8236 14.4462 23.091 16.5417 25.9905 16.5417Z" fill="#2C1551"/>
<path d="M37.8276 4.40079V5.704L37.5911 8.55599H37.9051L41.8323 4.40079H43.2311V18.5618H40.7435V15.7494L41.0575 8.2906H40.7435L37.7828 11.1981V18.5618H35.3359V4.40079H37.8276ZM38.6963 1.77458H38.5576C38.105 1.77458 37.8847 1.9251 37.8847 2.2103C37.8847 2.49154 38.1213 2.64602 38.5576 2.64602H40.0176C40.4498 2.64602 40.6864 2.4955 40.6864 2.2103C40.6864 1.9251 40.4702 1.77458 40.0176 1.77458H39.883V0H40.2174C41.4979 0 42.546 0.681311 42.546 1.81419C42.546 3.09759 41.4816 3.7789 39.2917 3.7789C37.1017 3.7789 36.0374 3.09759 36.0374 1.81419C36.0374 0.681311 37.0814 0 38.366 0H38.7004V1.77458H38.6963Z" fill="#2C1551"/>
<path d="M56.1178 4.40088V6.66663H52.3293V18.5618H49.8457V4.40088H56.1178Z" fill="#2C1551"/>
<path d="M64.0471 4.15527C68.2679 4.15527 71.7017 7.25286 71.7017 11.4833C71.7017 15.5237 68.4678 18.8114 64.0471 18.8114C59.8263 18.8114 56.3926 15.7138 56.3926 11.4833C56.3926 7.43903 59.6306 4.15527 64.0471 4.15527ZM64.0471 16.5417C67.1424 16.5417 69.2141 14.2561 69.2141 11.4794C69.2141 8.5125 66.9466 6.41707 64.0471 6.41707C60.9519 6.41707 58.8802 8.70263 58.8802 11.4794C58.8802 14.4462 61.1476 16.5417 64.0471 16.5417Z" fill="#2C1551"/>
<path d="M76.8708 4.40088C79.5746 4.40088 81.2915 6.13981 81.2915 9.44337C81.2915 12.4815 79.595 14.2957 76.8708 14.2957H75.9043V18.5618H73.4004V4.40088H76.8708ZM75.9043 12.4063H76.8504C78.0535 12.4063 78.8242 11.4437 78.8242 9.79987V9.02745C78.8242 7.44301 78.0535 6.66663 76.8504 6.66663H75.9043V12.4063Z" fill="#2C1551"/>
<path d="M90.0198 4.15527C94.2406 4.15527 97.6743 7.25286 97.6743 11.4833C97.6743 15.5237 94.4404 18.8114 90.0198 18.8114C85.799 18.8114 82.3652 15.7138 82.3652 11.4833C82.3652 7.43903 85.5992 4.15527 90.0198 4.15527ZM90.0198 16.5417C93.1151 16.5417 95.1867 14.2561 95.1867 11.4794C95.1867 8.5125 92.9193 6.41707 90.0198 6.41707C86.9245 6.41707 84.8529 8.70263 84.8529 11.4794C84.8488 14.4462 87.1203 16.5417 90.0198 16.5417Z" fill="#2C1551"/>
<path d="M106.384 4.40093V16.2961H108.219V17.1834L106.445 22.0001H105.638V18.5619H98.1992V18.1262L100.348 6.56766V4.39697H106.384V4.40093ZM102.22 6.66669L101.017 16.2961H103.896V6.66669H102.22Z" fill="#2C1551"/>
<path d="M151.007 4.40076V6.66651H148.365V18.5617H145.877V6.66651H143.234V4.40076H151.007Z" fill="#2C1551"/>
<path d="M156.089 4.40088C158.793 4.40088 160.253 5.73973 160.253 8.0451C160.253 9.42356 159.466 10.5208 158.36 10.8971V11.1625C159.625 11.5586 160.412 12.7113 160.412 14.4463C160.412 17.0527 158.952 18.5618 155.991 18.5618H152.402V4.40088H156.089ZM154.866 10.1603H156.228C157.333 10.1603 157.883 9.59389 157.883 8.51647V8.17582C157.883 7.13801 157.312 6.62702 156.228 6.62702H154.866V10.1603ZM154.866 16.3357H156.166C157.39 16.3357 158.002 15.694 158.002 14.5611V13.9749C158.002 12.7667 157.431 11.9547 156.166 11.9547H154.866V16.3357Z" fill="#2C1551"/>
<path d="M169.225 4.15527C173.446 4.15527 176.879 7.25286 176.879 11.4833C176.879 15.5237 173.645 18.8114 169.225 18.8114C165.004 18.8114 161.57 15.7138 161.57 11.4833C161.574 7.43903 164.808 4.15527 169.225 4.15527ZM169.225 16.5417C172.32 16.5417 174.392 14.2561 174.392 11.4794C174.392 8.5125 172.124 6.41707 169.225 6.41707C166.13 6.41707 164.058 8.70263 164.058 11.4794C164.058 14.4462 166.325 16.5417 169.225 16.5417Z" fill="#2C1551"/>
<path d="M183.863 11.1584H181.062V16.296H185.698V18.5617H178.578V4.40078H185.303V6.66653H181.062V9.7047L183.549 9.08281L183.863 11.1584ZM178.872 0.812012H181.241V3.07777H178.872V0.812012ZM182.819 0.812012H185.189V3.07777H182.819V0.812012Z" fill="#2C1551"/>
<path d="M198.993 4.40093V16.2961H200.828V17.1834L199.054 22.0001H198.247V18.5619H190.809V18.1262L192.958 6.56766V4.39697H198.993V4.40093ZM194.834 6.66669L193.631 16.2961H196.51V6.66669H194.834Z" fill="#2C1551"/>
<path d="M207.244 11.1585H204.443V16.2961H209.079V18.5618H201.959V4.40088H208.684V6.66663H204.443V9.7048L206.93 9.08291L207.244 11.1585Z" fill="#2C1551"/>
<path d="M219.51 4.40076V18.5617H217.023V6.66651H214.853L214.657 13.0479C214.519 17.6744 213.475 18.6766 211.897 18.6766C211.167 18.6766 210.534 18.431 210.041 17.8844V15.3334H210.632C210.632 15.9395 210.869 16.296 211.362 16.296C211.954 16.296 212.251 15.8246 212.37 14.5768L213.161 6.64671V4.40076H219.51Z" fill="#2C1551"/>
<path d="M228.846 4.15527C233.067 4.15527 236.5 7.25286 236.5 11.4833C236.5 15.5237 233.267 18.8114 228.846 18.8114C224.625 18.8114 221.191 15.7138 221.191 11.4833C221.191 7.43903 224.425 4.15527 228.846 4.15527ZM228.846 16.5417C231.941 16.5417 234.013 14.2561 234.013 11.4794C234.013 8.5125 231.745 6.41707 228.846 6.41707C225.751 6.41707 223.679 8.70263 223.679 11.4794C223.675 14.4462 225.946 16.5417 228.846 16.5417Z" fill="#2C1551"/>
<path d="M138.132 10.3386H111.955V12.6083H138.132V10.3386Z" fill="#2C1551"/>
</g>
<defs>
<clipPath id="clip0_5_9154">
<rect width="236.5" height="22" fill="white"/>
</clipPath>
</defs>
</svg>
