<svg width="42" height="42" viewBox="0 0 42 42" fill="none" xmlns="http://www.w3.org/2000/svg">
<path d="M37.3717 8.633L21.6217 3.383C21.2183 3.24684 20.7814 3.24684 20.3781 3.383L4.62808 8.633C4.25227 8.75747 3.92272 8.99234 3.68243 9.30697C3.44215 9.62159 3.30229 10.0014 3.28113 10.3967C3.27934 10.4311 3.27934 10.4656 3.28113 10.5V23.625C3.28113 24.1472 3.48855 24.6479 3.85777 25.0171C4.22698 25.3864 4.72774 25.5938 5.24988 25.5938C5.77203 25.5938 6.27279 25.3864 6.642 25.0171C7.01121 24.6479 7.21863 24.1472 7.21863 23.625V13.2317L11.1086 14.5278C9.90131 16.8386 9.54256 19.4995 10.0947 22.0476C10.6469 24.5956 12.075 26.8693 14.1306 28.4731C11.4407 29.7995 9.16413 31.8355 7.54676 34.3613C7.40111 34.5778 7.29994 34.821 7.24913 35.0769C7.19833 35.3328 7.1989 35.5963 7.25081 35.852C7.30272 36.1077 7.40494 36.3505 7.55152 36.5664C7.6981 36.7822 7.88612 36.9668 8.10466 37.1093C8.32319 37.2518 8.56788 37.3495 8.8245 37.3967C9.08111 37.4438 9.34454 37.4395 9.59946 37.3839C9.85439 37.3283 10.0957 37.2226 10.3094 37.073C10.5232 36.9233 10.705 36.7327 10.8444 36.5121C13.1856 32.9093 16.8983 30.8438 20.9999 30.8438C25.1014 30.8438 28.8142 32.9093 31.1636 36.5121C31.3029 36.7327 31.4848 36.9233 31.6985 37.073C31.9122 37.2226 32.1536 37.3283 32.4085 37.3839C32.6634 37.4395 32.9269 37.4438 33.1835 37.3967C33.4401 37.3495 33.6848 37.2518 33.9033 37.1093C34.1218 36.9668 34.3099 36.7822 34.4564 36.5664C34.603 36.3505 34.7052 36.1077 34.7572 35.852C34.8091 35.5963 34.8096 35.3328 34.7588 35.0769C34.708 34.821 34.6069 34.5778 34.4612 34.3613C32.8423 31.8326 30.5627 29.7947 27.8692 28.4682C29.9247 26.8644 31.3529 24.5907 31.905 22.0426C32.4572 19.4946 32.0985 16.8337 30.8912 14.5228L37.3717 12.3621C37.7632 12.2312 38.1036 11.9804 38.3448 11.6454C38.586 11.3103 38.7158 10.9079 38.7158 10.4951C38.7158 10.0823 38.586 9.67989 38.3448 9.34484C38.1036 9.0098 37.7632 8.75906 37.3717 8.62808V8.633ZM20.9999 7.3205L30.5237 10.5L20.9999 13.6746L11.4843 10.5L20.9999 7.3205ZM28.2186 19.6875C28.2188 20.8088 27.9579 21.9147 27.4564 22.9175C26.9549 23.9204 26.2267 24.7926 25.3295 25.4651C24.4323 26.1376 23.3907 26.5919 22.2875 26.7919C21.1842 26.9919 20.0495 26.9321 18.9733 26.6173C17.8971 26.3026 16.9091 25.7414 16.0875 24.9784C15.2659 24.2154 14.6334 23.2715 14.24 22.2215C13.8466 21.1715 13.7032 20.0443 13.8212 18.9293C13.9392 17.8142 14.3153 16.742 14.9197 15.7976L20.3781 17.6171C20.7815 17.7527 21.2182 17.7527 21.6217 17.6171L27.08 15.7976C27.8245 16.9583 28.2198 18.3086 28.2186 19.6875Z" fill="#FFBE55"/>
</svg>
