<svg width="32" height="32" viewBox="0 0 32 32" fill="none" xmlns="http://www.w3.org/2000/svg">
<g id="Group 43">
<path id="Vector 205 (Stroke)" fill-rule="evenodd" clip-rule="evenodd" d="M3.84046 15.7924C4.19822 15.5362 4.71241 15.6405 4.98894 16.0253C7.27612 19.2085 9.41572 22.4807 11.5473 25.7405C11.8186 26.1555 12.0897 26.5702 12.3611 26.9845C12.6207 27.3808 12.5309 27.8951 12.1607 28.1332C11.7905 28.3713 11.2799 28.2429 11.0203 27.8465C10.7483 27.4312 10.4769 27.0161 10.2058 26.6015C8.07156 23.3377 5.95522 20.1012 3.69338 16.9533C3.41685 16.5684 3.4827 16.0487 3.84046 15.7924Z" fill="#FFBE55"/>
<path id="Vector 206 (Stroke)" fill-rule="evenodd" clip-rule="evenodd" d="M23.2083 24.7486C22.8987 25.1143 22.3555 25.1704 21.9951 24.8738C21.315 24.3141 20.6361 23.7541 19.9578 23.1946C15.9935 19.9245 12.0478 16.6697 7.97402 13.571C7.6023 13.2882 7.54091 12.7537 7.83688 12.3772C8.13285 12.0006 8.67412 11.9245 9.04583 12.2073C13.1477 15.3274 17.1216 18.6055 21.0848 21.8747C21.7622 22.4334 22.4392 22.9919 23.1164 23.5492C23.4768 23.8458 23.518 24.3828 23.2083 24.7486Z" fill="#FFBE55"/>
<path id="Vector 207 (Stroke)" fill-rule="evenodd" clip-rule="evenodd" d="M24.9118 10.6591C24.7941 11.1002 24.3409 11.3646 23.8997 11.2498L9.51073 7.50438C9.06955 7.38954 8.80736 6.93891 8.92513 6.49786C9.0429 6.05682 9.49602 5.79237 9.93721 5.90721L24.3262 9.65259C24.7674 9.76743 25.0296 10.2181 24.9118 10.6591Z" fill="#FFBE55"/>
</g>
</svg>
